<?xml version="1.0" encoding="UTF-8"?>
<svg id="Camada_1" xmlns="http://www.w3.org/2000/svg" version="1.1" viewBox="0 0 2048 1024">
  <!-- Generator: Adobe Illustrator 30.0.0, SVG Export Plug-In . SVG Version: 2.1.1 Build 123)  -->
  <defs>
    <style>
      .st0 {
        fill: #181828;
      }
    </style>
  </defs>
  <path class="st0" d="M1877.16,344.33c-49.17-14.05-94.04-9.11-141.7,11.05-195.86,91.08-139.07,366.15,40.13,425,46.44,15.25,96.94,15.5,142.69-5.95.46-.21.91-.43,1.36-.66,179.54-87.59,135.75-378.53-42.48-429.45h0ZM1937.8,737.78c-149.98,66.07-330.14-82.89-306.98-231.71,7.78-50.06,36.12-96.41,83.81-120.65,39.33-20.01,84.56-25.16,126.46-14.4,62.59,15.5,118.21,58.83,148.68,112.84,45.52,80.7,43.02,201.51-51.96,253.92h-.01Z"/>
  <path class="st0" d="M236.28,232.63c-53.85,131.83-106.96,263.96-159.33,396.38l-44.2,109.95c-3.81,9.35-14.32,37.44-19.25,44.85h13.08c10.69-22.34,21.59-53.82,30.99-77.18,12.04-29.92,27.07-63.37,37.61-93.44,36.01,1.57,77.47-.13,114.24.42l126.35.1,39.29,113.03c5.95,17.11,14.81,40.24,19.73,57.17l36.01-.33c-17.76-51.7-187.82-547.24-194.52-550.97v.02ZM210.83,601.96c-36.91-.26-73.82-.21-110.73.13,42.16-101.88,81.44-206.88,122.57-309.24,3.02,3.94,17.65,47.8,20.12,54.66,21.57,60.16,42.77,120.45,63.6,180.88,8.52,24.46,17.93,49.21,26.09,73.7-40.26-.52-81.31-.11-121.63-.13h-.02Z"/>
  <path class="st0" d="M875.28,254.8c1.76,12.12,1.32,35.08,1.38,48.08.32,26.39.31,52.78-.03,79.17,44.67.84,91.31.15,136.21.45l-.15,23.37-135.75.09.16,208.29c0,12.84-.17,25.76-.04,38.57.4,20.69-1.25,41.46.9,62.1,2.68,25.83,16.05,52.56,45.71,60.17,32.63,8.37,61.4-7.83,88.83-21.88l4.67,11.46c-27.19,13.59-50.59,25.11-82.61,25.14-25.46.02-51.93-4.91-70.57-21.71-30.89-27.83-26.17-71.24-26.11-107.83.1-22.86.05-45.72-.13-68.58l-.38-185.6c-81.32.22-167.61-1.94-248.24.29l.08,207.91c.02,12.09-.24,23.77-.1,36.35.48,41.79-8.68,109.44,48.68,124.51,30.34,7.97,60.1-8.48,85.3-22.08l7.74,9.42c-56.49,39.31-159.04,41.73-175.8-33.72-7.78-35.02-4.37-91.56-4.3-128.54v-194.37c-22.73-.1-45.46-.07-68.18.09l.06-23.8c21.44.21,42.88.23,64.32.06l26.21-79.97c2.99-9.31,10.4-34.63,14.22-42.48,3.25,4.17,1.87,108.91,1.86,122.56l243.2.1c10.8-23.34,16.95-51.98,25.49-76.33,5.91-16.83,9.65-35.01,17.4-51.28h-.03Z"/>
  <path class="st0" d="M1543.33,349.29l14.73.29c-11.91,37.42-27.28,77.29-40.54,114.43l-69.77,195.81c-11.2,31.2-26.91,70.94-36.54,102.18l8.51,24.21-45.37.09-145.53-388.84c-4.03-12.22-13.38-36.8-18.48-47.98,13.82-.17,27.99,0,41.84.02,2.03,6.94,8.24,21.54,11.07,28.8l23.03,59.39c26.32,68.12,52.29,136.38,77.88,204.78,11.3,29.87,29.58,73.56,38.35,102.56l99.44-280.45,27.99-79.62c2.14-6.22,10.23-32.76,13.37-35.66h.02Z"/>
  <g>
    <path class="st0" d="M1130.97,379.77c2.69,8.26,1.02,73.79,1.06,87.4l-.13,324.18h-33.8c-2.39-3.27-1.46-42.43-1.46-50.47l.09-90.71.44-251.73c11.21-6.33,22.47-12.56,33.8-18.68h0Z"/>
    <path class="st0" d="M1110.78,243.9c31.41-4.02,38.4,42.5,7.53,50.87-11.62.47-21.32-4.17-25.7-15.41-2.52-6.63-2.29-13.99.63-20.45,3.84-8.51,9.22-11.89,17.55-15.02h-.01Z"/>
  </g>
</svg>