<?xml version="1.0" encoding="UTF-8"?>
<svg id="svg24" xmlns="http://www.w3.org/2000/svg" xmlns:svg="http://www.w3.org/2000/svg" xmlns:sodipodi="http://sodipodi.sourceforge.net/DTD/sodipodi-0.dtd" xmlns:rdf="http://www.w3.org/1999/02/22-rdf-syntax-ns#" xmlns:inkscape="http://www.inkscape.org/namespaces/inkscape" xmlns:dc="http://purl.org/dc/elements/1.1/" xmlns:cc="http://creativecommons.org/ns#" version="1.1" viewBox="0 0 700 700">
  <!-- Generator: Adobe Illustrator 30.0.0, SVG Export Plug-In . SVG Version: 2.1.1 Build 123)  -->
  <defs>
    <style>
      .st0 {
        fill: #181828;
      }
    </style>
  </defs>
  <sodipodi:namedview id="namedview26" bordercolor="#666666" borderopacity="1" gridtolerance="10" guidetolerance="10" inkscape:current-layer="svg24" inkscape:cx="293.98653" inkscape:cy="369.88268" inkscape:pageopacity="0" inkscape:pageshadow="2" inkscape:window-height="1017" inkscape:window-maximized="1" inkscape:window-width="1920" inkscape:window-x="-8" inkscape:window-y="-8" inkscape:zoom="0.90783846" objecttolerance="10" pagecolor="#ffffff" showgrid="false"/>
  <g>
    <path id="path2" class="st0" d="M116.85,291.25l-27.57,11.31c-.72.28-1.34.78-1.77,1.42s-.66,1.41-.64,2.18v30.88l21.81-8.76c3.4-1.3,6.32-3.62,8.36-6.63,2.04-3.02,3.1-6.59,3.03-10.23v-17.98c.03-.39-.04-.79-.21-1.15s-.43-.66-.76-.88-.71-.35-1.1-.38-.79.05-1.14.22h-.01Z" inkscape:connector-curvature="0" inkscape:export-filename="C:\Users\suitedoalex\sites\localiza-logo-3.png" inkscape:export-xdpi="64.728615" inkscape:export-ydpi="64.728615"/>
    <path id="path4" class="st0" d="M53.38,353.27v16.63c0,22.66,16.42,39.07,39.11,39.07h24.58c.4.01.8-.06,1.18-.2.37-.15.71-.37,1-.65.28-.28.51-.62.65-1,.15-.37.22-.77.2-1.18v-27.3c.01-.4-.06-.8-.2-1.18-.15-.37-.37-.71-.65-1-.28-.28-.62-.51-1-.66-.37-.15-.77-.22-1.18-.21h-25.14c-.67.02-1.34-.09-1.97-.34-.63-.25-1.19-.62-1.67-1.09-.48-.47-.85-1.04-1.09-1.67-.25-.63-.36-1.29-.34-1.97v-33.52l-31.06,12.64c-.73.28-1.36.77-1.79,1.42s-.66,1.41-.64,2.19v.02Z" inkscape:connector-curvature="0" inkscape:export-filename="C:\Users\suitedoalex\sites\localiza-logo-3.png" inkscape:export-xdpi="64.728615" inkscape:export-ydpi="64.728615"/>
    <path id="path6" class="st0" d="M254.58,318.45c-21,0-37.17,16.32-37.17,36.9s16.17,36.89,37.17,36.89,37.18-16.31,37.18-36.89-16.17-36.9-37.18-36.9h0ZM254.58,377.76c-12.63,0-21.43-9.78-21.43-22.42s8.8-22.42,21.43-22.42,21.28,9.78,21.28,22.42-8.79,22.42-21.28,22.42h0Z" inkscape:connector-curvature="0" inkscape:export-filename="C:\Users\suitedoalex\sites\localiza-logo-3.png" inkscape:export-xdpi="64.728615" inkscape:export-ydpi="64.728615"/>
    <path id="path8" class="st0" d="M366.25,372.09l-11.64-6.24c-.14-.08-.29-.13-.45-.14s-.32,0-.47.06c-.15.05-.28.14-.4.25-.11.11-.2.25-.25.4-1.78,3.46-4.49,6.35-7.82,8.35-3.33,2.01-7.15,3.05-11.04,3-12.63,0-21.57-9.78-21.57-22.42s8.94-22.42,21.57-22.42c3.89-.05,7.71.99,11.04,2.99,3.33,2,6.04,4.9,7.81,8.36.05.15.14.29.25.4s.25.2.4.25.31.07.47.06.31-.07.45-.15l11.64-6.24c.14-.06.27-.16.37-.27.1-.12.17-.26.22-.4.04-.15.05-.31.02-.46s-.09-.3-.18-.42c-6.24-11.36-18.16-18.59-32.49-18.59-21.29,0-37.46,15.9-37.46,36.9s16.17,36.89,37.46,36.89c14.33,0,26.39-7.24,32.64-18.73.11-.26.11-.56,0-.83-.11-.26-.31-.48-.57-.59h0Z" inkscape:connector-curvature="0" inkscape:export-filename="C:\Users\suitedoalex\sites\localiza-logo-3.png" inkscape:export-xdpi="64.728615" inkscape:export-ydpi="64.728615"/>
    <path id="path10" class="st0" d="M215.56,376.63h-36.32v-55.62c-.02-.3-.15-.57-.36-.78s-.49-.34-.78-.36h-13.34c-.29.02-.57.15-.78.36-.21.21-.33.49-.35.78v56.76c0,8.09,4.97,13.05,13.05,13.05h38.87c.3-.02.57-.15.78-.36.21-.21.33-.49.35-.78v-11.91c-.02-.29-.14-.57-.35-.78s-.49-.34-.78-.36h.01Z" inkscape:connector-curvature="0" inkscape:export-filename="C:\Users\suitedoalex\sites\localiza-logo-3.png" inkscape:export-xdpi="64.728615" inkscape:export-ydpi="64.728615"/>
    <path id="path12" class="st0" d="M568.87,376.63h-37.23l36.67-43.56c.37-.44.57-.99.56-1.56v-10.48c-.02-.3-.14-.57-.36-.78-.21-.21-.49-.34-.78-.36h-54.47c-.3.02-.57.15-.78.36s-.34.49-.35.78v11.92c.02.29.15.57.36.78.21.21.49.33.78.35h35.43l-36.57,43.71c-.37.44-.57.99-.57,1.56v10.34c.02.3.14.57.35.78s.49.34.78.36h56.19c.29-.02.57-.15.78-.36s.33-.49.35-.78v-11.91c-.02-.3-.14-.58-.35-.78-.21-.21-.49-.34-.79-.35h0v-.02Z" inkscape:connector-curvature="0" inkscape:export-filename="C:\Users\suitedoalex\sites\localiza-logo-3.png" inkscape:export-xdpi="64.728615" inkscape:export-ydpi="64.728615"/>
    <path id="path14" class="st0" d="M499.91,294.48h-13.34c-.29.02-.57.15-.78.35-.21.21-.33.48-.35.78v13.63c.02.29.15.57.35.78.21.21.48.33.78.35h5.1c1.24.04,2.48-.18,3.63-.63,1.15-.46,2.2-1.14,3.08-2.02s1.57-1.93,2.02-3.08c.46-1.15.67-2.39.63-3.63v-5.39c-.02-.29-.15-.57-.35-.78-.21-.21-.48-.33-.78-.35h.01Z" inkscape:connector-curvature="0" inkscape:export-filename="C:\Users\suitedoalex\sites\localiza-logo-3.png" inkscape:export-xdpi="64.728615" inkscape:export-ydpi="64.728615"/>
    <path id="path16" class="st0" d="M645.48,319.87h-13.34c-.29.02-.57.15-.78.36s-.33.49-.35.78v8.43c-3.97-5.72-12.44-10.99-22.7-10.99-19.44,0-34.22,16.6-34.22,36.9s14.76,36.89,34.22,36.89c10.27,0,18.74-5.26,22.7-10.98v8.42c.02.29.14.57.35.78.21.21.49.34.78.36h13.34c.3-.02.57-.15.79-.36.21-.21.33-.49.35-.78v-68.67c-.02-.3-.15-.57-.36-.78-.21-.21-.49-.34-.78-.36h0ZM611.15,378.04c-12.48,0-21.14-9.93-21.14-22.7s8.66-22.7,21.14-22.7,21.15,9.93,21.15,22.7-8.66,22.7-21.15,22.7Z" inkscape:connector-curvature="0" inkscape:export-filename="C:\Users\suitedoalex\sites\localiza-logo-3.png" inkscape:export-xdpi="64.728615" inkscape:export-ydpi="64.728615"/>
    <path id="path18" class="st0" d="M442.19,319.87h-13.34c-.29.02-.57.15-.78.36s-.33.49-.35.78v8.43c-3.97-5.72-12.45-10.99-22.7-10.99-19.44,0-34.22,16.6-34.22,36.9s14.76,36.89,34.22,36.89c10.26,0,18.73-5.26,22.7-10.98v8.42c.02.29.14.57.35.78s.49.34.78.36h13.34c.3-.02.57-.15.78-.36s.33-.49.35-.78v-68.67c-.02-.29-.14-.57-.35-.78s-.48-.34-.78-.36h0ZM407.85,378.04c-12.49,0-21.14-9.93-21.14-22.7s8.65-22.7,21.14-22.7,21.14,9.93,21.14,22.7-8.68,22.7-21.17,22.7h.03,0Z" inkscape:connector-curvature="0" inkscape:export-filename="C:\Users\suitedoalex\sites\localiza-logo-3.png" inkscape:export-xdpi="64.728615" inkscape:export-ydpi="64.728615"/>
    <path id="path20" class="st0" d="M499.91,319.87h-13.33c-.63,0-1.14.51-1.14,1.14v68.67c0,.63.51,1.14,1.14,1.14h13.33c.63,0,1.14-.51,1.14-1.14v-68.67c0-.63-.51-1.14-1.14-1.14Z" inkscape:connector-curvature="0" inkscape:export-filename="C:\Users\suitedoalex\sites\localiza-logo-3.png" inkscape:export-xdpi="64.728615" inkscape:export-ydpi="64.728615"/>
    <path id="path22" class="st0" d="M471.1,294.48h-13.33c-.63,0-1.14.51-1.14,1.14v94.07c0,.63.51,1.14,1.14,1.14h13.33c.63,0,1.14-.51,1.14-1.14v-94.07c0-.63-.51-1.14-1.14-1.14Z" inkscape:connector-curvature="0" inkscape:export-filename="C:\Users\suitedoalex\sites\localiza-logo-3.png" inkscape:export-xdpi="64.728615" inkscape:export-ydpi="64.728615"/>
  </g>
</svg>