<?xml version="1.0" encoding="UTF-8"?>
<svg id="Layer_1" xmlns="http://www.w3.org/2000/svg" xmlns:xlink="http://www.w3.org/1999/xlink" xmlns:serif="http://www.serif.com/" version="1.1" viewBox="0 0 340.2 107.5">
  <!-- Generator: Adobe Illustrator 29.8.2, SVG Export Plug-In . SVG Version: 2.1.1 Build 3)  -->
  <defs>
    <style>
      .st0 {
        fill: none;
      }

      .st1, .st2 {
        fill-rule: evenodd;
      }

      .st1, .st3 {
        fill: #fff;
      }

      .st4, .st2 {
        fill: #00aeef;
      }

      .st5 {
        clip-path: url(#clippath);
      }
    </style>
    <clipPath id="clippath">
      <rect class="st0" y="-.6" width="340.2" height="110.8"/>
    </clipPath>
  </defs>
  <rect id="Prancheta1" class="st0" y="-.6" width="340.2" height="110.8"/>
  <g class="st5">
    <g>
      <g>
        <path class="st4" d="M177.3,76.4h-2.6l.3-1.8h7.1l-.3,1.8h-2.6l-1.5,8h-1.9l1.5-8Z"/>
        <path class="st4" d="M183,74.6h1.9l-.7,3.9h3.9l.7-3.9h1.9l-1.9,9.8h-1.9l.8-4.1h-3.9l-.8,4.1h-1.9l1.9-9.8Z"/>
        <path class="st4" d="M192.1,74.6h6.1l-.3,1.8h-4.2l-.4,2.3h3.1l-.3,1.7h-3.1l-.4,2.3h4.2l-.3,1.8h-6.1l1.9-9.8h0l-.2-.1Z"/>
        <path class="st4" d="M205.3,76.4h-2.6l.3-1.8h7.1l-.3,1.8h-2.6l-1.5,8h-1.9l1.5-8Z"/>
        <path class="st4" d="M211,74.6h6.1l-.3,1.8h-4.2l-.4,2.3h3.1l-.3,1.7h-3.1l-.4,2.3h4.2l-.3,1.8h-6.1l1.9-9.8-.2-.1Z"/>
        <path class="st4" d="M220.7,84.7c-.8,0-1.5-.2-2.1-.5s-1.1-.8-1.4-1.4c-.3-.6-.5-1.3-.5-2.1s0-.8.1-1.2c.2-1,.6-1.9,1.1-2.7.5-.8,1.2-1.4,2-1.8s1.7-.6,2.7-.6,2.2.3,2.9.9l-.4,2c-.3-.3-.7-.6-1.1-.8s-1-.2-1.6-.2c-.9,0-1.7.3-2.3.8s-1.1,1.3-1.3,2.3c0,.4-.1.7-.1,1.1,0,.7.2,1.2.6,1.6.4.4,1,.5,1.9.5s1.2,0,1.7-.2,1-.4,1.5-.8l-.4,2c-.9.6-2,1-3.4,1l.1.1Z"/>
        <path class="st4" d="M226.9,74.6h1.9l-.7,3.9h3.9l.7-3.9h1.9l-1.9,9.8h-1.9l.8-4.1h-3.9l-.8,4.1h-1.9l1.9-9.8Z"/>
        <path class="st4" d="M243,84.7c-.8,0-1.5-.2-2.1-.5s-1-.8-1.4-1.3c-.3-.6-.5-1.3-.5-2.1s0-.8.1-1.2c.2-1,.6-1.9,1.1-2.7.5-.8,1.2-1.4,2-1.8s1.7-.6,2.6-.6,1.2,0,1.7.2c.5.1.9.4,1.2.7l-.4,2c-.3-.3-.7-.6-1.1-.7-.4-.1-.9-.2-1.5-.2-.9,0-1.8.3-2.4.8-.7.6-1.1,1.3-1.3,2.3,0,.4-.1.7-.1,1,0,1.4.8,2.2,2.4,2.2s1-.1,1.4-.3l.4-1.9h-1.4l.3-1.6h3.3l-.9,4.7c-1,.6-2.1,1-3.5,1h.1Z"/>
        <path class="st4" d="M249.3,74.6h3.8c.8,0,1.4.2,1.9.6s.7,1,.7,1.8v.8c-.1.7-.4,1.4-.8,1.9s-.9.9-1.5,1.1l1,3.6h-2l-.9-3.3h-1.5l-.6,3.3h-1.9l1.9-9.8h-.1ZM251.9,79.3c.6,0,1-.1,1.3-.3.3-.2.5-.6.6-1.1v-.5c0-.4-.1-.6-.3-.7s-.6-.2-1-.2h-1.6l-.6,2.9h1.6v-.1Z"/>
        <path class="st4" d="M259.9,84.7c-.8,0-1.4-.2-2-.5s-1-.8-1.4-1.4c-.3-.6-.5-1.3-.5-2.1s0-.8.1-1.2c.2-1,.6-1.9,1.1-2.7s1.2-1.4,2-1.8,1.7-.6,2.6-.6,1.4.2,2,.5,1,.8,1.4,1.4c.3.6.5,1.3.5,2.1s0,.8-.1,1.2c-.2,1-.6,1.9-1.1,2.7-.5.8-1.2,1.4-2,1.8s-1.7.6-2.6.6h0ZM260.3,82.7c.5,0,1-.1,1.5-.4s.9-.6,1.2-1.1c.3-.5.6-1,.7-1.7,0-.4.1-.7.1-.9,0-.7-.2-1.2-.6-1.6s-.9-.6-1.7-.6-1,.1-1.5.4-.9.6-1.2,1.1c-.3.5-.6,1-.7,1.7,0,.4-.1.7-.1,1,0,.7.2,1.2.6,1.6s.9.6,1.7.6h0v-.1Z"/>
        <path class="st4" d="M269.5,84.7c-.7,0-1.3-.1-1.8-.4s-.8-.6-1.1-1.1c-.2-.5-.4-1-.4-1.6s0-.6.1-1l1.1-5.9h1.9l-1.1,5.9v.8c0,.5.1.8.4,1.1.3.2.7.3,1.3.3s1.1-.2,1.5-.6.7-.9.8-1.6l1.1-5.9h1.9l-1.1,5.9c-.3,1.4-.8,2.4-1.5,3.1s-1.8,1-3.2,1h.1Z"/>
        <path class="st4" d="M276.6,74.6h3.7c.8,0,1.5.2,2,.7s.8,1.1.8,1.9,0,.5,0,.7c-.2,1.1-.6,1.9-1.3,2.5-.7.6-1.5.8-2.6.8h-1.8l-.6,3.2h-1.9l1.9-9.8h-.2ZM279.1,79.5c.6,0,1-.1,1.3-.3.3-.2.5-.6.6-1.2v-.5c0-.4-.1-.7-.3-.8-.2-.2-.6-.2-1.1-.2h-1.5l-.6,3.1h1.5l.1-.1Z"/>
        <path class="st1" d="M164.9,58v-23.1h5v8.9h0v13c0,1.8.4,3.2,1.3,4,.9.9,2.2,1.3,4.1,1.3s2.7-.3,3.9-.9c.5-.3.9-.5,1.4-.9-.8-1.6-1.2-3.5-1.2-5.5s.5-4.3,1.5-6,2.4-3.1,4.1-4.1c1.7-1,3.6-1.5,5.8-1.5s4.3.5,5.6,1.6c1.4,1,2.4,2.4,3,4.2.1.4.3.8.4,1.2v-6.5h5v22.1h-4.6v-.8c-.2-.6-.2-1.3-.3-2.1v-4.2c-.3,1.3-.9,2.6-1.7,3.7-.8,1.2-1.8,2.1-3,2.8-1.3.7-2.8,1.1-4.6,1.1s-3.9-.5-5.6-1.5c-1.2-.7-2.2-1.6-3-2.6-.4.6-.8,1.1-1.4,1.6-.8.8-1.8,1.4-2.9,1.8-1.1.4-2.4.7-3.7.7s-2.5-.2-3.6-.5c-.1,0-.2,0-.3-.1v.2-.2c-1-.3-1.8-.8-2.5-1.5-.8-.7-1.4-1.6-1.8-2.7-.4-1-.6-2.2-.6-3.6h0l-.3.1ZM199.7,54.9c0-1.6-.3-2.9-.9-4-.6-1.1-1.5-2-2.7-2.6s-2.6-.9-4.2-.9c-2.4,0-4.2.7-5.5,2.1s-2,3.2-2,5.4.3,2.8,1,3.9c.6,1.1,1.5,2,2.6,2.6s2.4.9,3.9.9,3.1-.3,4.2-1,2.1-1.5,2.7-2.7c.6-1.1.9-2.4.9-3.8h0v.1ZM205.7,53.8c0-3.1.9-5.6,2.7-7.6,1.8-1.9,4.4-2.9,7.7-2.9s4.3.4,5.9,1.3c1.6.8,2.9,2,3.7,3.6.9,1.6,1.3,3.4,1.3,5.6h0v12.2h-5v-12.2h0c0-1.2-.2-2.1-.7-3-.5-.8-1.1-1.5-2-1.9s-1.9-.7-3.1-.7c-1.8,0-3.1.5-4.1,1.6-1,1-1.5,2.4-1.5,4h0v12.2h-5v-12.2h.1ZM248,58.8c-.3,1.3-.9,2.6-1.7,3.7-.8,1.2-1.8,2.1-3,2.8-1.3.7-2.8,1.1-4.6,1.1s-3.9-.5-5.6-1.5c-1.7-1-3-2.3-4-4.1-1-1.7-1.5-3.7-1.5-6s.5-4.3,1.4-6c1-1.7,2.3-3.1,3.9-4.1,1.7-1,3.6-1.5,5.7-1.5s3.4.3,4.7.9c1.3.6,2.3,1.4,3,2.5.7,1,1.3,2.2,1.6,3.6v-15.4h5v31h-4.6c0-.7-.2-1.5-.2-2.5s-.1-1.9-.1-2.7v-1.9h0v.1ZM248,54.9c0-1.6-.3-2.9-.9-4-.6-1.1-1.5-2-2.7-2.6s-2.6-.9-4.2-.9c-2.4,0-4.2.7-5.5,2.1-1.3,1.4-2,3.2-2,5.4s0,.1,0,.2c0,1.4.3,2.6,1,3.7.6,1.1,1.5,2,2.6,2.6s2.4.9,3.9.9,3.1-.3,4.2-1,2.1-1.5,2.7-2.7c.6-1.1.9-2.4.9-3.8v.1ZM284.9,53.6v12.4h-5v-22.1h5v6.5c.2-.6.4-1.3.8-2.1s.9-1.6,1.5-2.3,1.4-1.4,2.4-1.8c.9-.5,2-.7,3.3-.7v4.7c-1.6,0-3,.3-4.1,1s-2.1,1.5-2.7,2.5c-.5.7-.9,1.4-1.1,2h0l-.1-.1ZM266.5,66.2c-2.5,0-4.7-.5-6.6-1.4s-3.5-2.2-4.6-3.9-1.7-3.8-1.7-6.2.6-4.5,1.7-6.3c1.1-1.7,2.7-3.1,4.6-4s4.2-1.4,6.6-1.4,4.7.5,6.6,1.4,3.4,2.2,4.6,4c1.1,1.7,1.7,3.8,1.7,6.3s-.6,4.5-1.7,6.2-2.6,3-4.6,3.9-4.1,1.4-6.6,1.4ZM274.1,54.9c0-1.6-.3-2.9-.9-4s-1.5-2-2.7-2.6-2.6-.9-4.2-.9c-2.4,0-4.2.7-5.5,2.1-1.3,1.4-2,3.2-2,5.4s.3,2.8,1,3.9c.6,1.1,1.5,2,2.6,2.6s2.4.9,3.9.9,3.1-.3,4.2-1,2.1-1.5,2.7-2.7c.6-1.1.9-2.4.9-3.8h0v.1Z"/>
        <path class="st2" d="M286.7,14.5h31.7l-20.2,33.7v-15.6h-15.4l3.9-18.1h0ZM289.9,18.1l-2.4,10.5h13.2v7.1l10.1-17.6h-20.9Z"/>
      </g>
      <g>
        <path class="st3" d="M27.6,53.2c2,0,3.5.4,4.4,1.2.9.8,1.4,1.9,1.4,3.4s-.1,1.3-.3,1.9c-.2.6-.6,1.1-1.1,1.6s-1.1.8-1.9,1.1-1.7.4-2.9.4h-1.9v6.1h-1.8v-15.6h4.1v-.1ZM27.4,54.8h-2.1v6.4h1.7c1,0,1.8-.1,2.5-.3s1.2-.6,1.5-1c.3-.5.5-1.1.5-1.9s-.3-1.8-1-2.3-1.7-.8-3.1-.8v-.1Z"/>
        <path class="st3" d="M46.5,62.9c0,1-.1,1.8-.4,2.6-.2.8-.6,1.4-1.1,1.9s-1,.9-1.7,1.2c-.7.3-1.4.4-2.3.4s-1.5-.1-2.2-.4-1.2-.7-1.7-1.2-.8-1.2-1.1-1.9c-.3-.8-.4-1.6-.4-2.6s.2-2.4.7-3.3c.4-.9,1.1-1.6,1.9-2.1.8-.5,1.8-.7,2.9-.7s2,.2,2.8.7,1.4,1.2,1.9,2.1c.4.9.7,2,.7,3.3ZM37.5,62.9c0,.9.1,1.8.4,2.4.2.7.6,1.2,1.2,1.6.5.4,1.2.6,2,.6s1.5-.2,2-.6.9-.9,1.2-1.6c.2-.7.4-1.5.4-2.4s-.1-1.7-.4-2.4c-.2-.7-.6-1.2-1.2-1.6-.5-.4-1.2-.6-2-.6-1.2,0-2.1.4-2.7,1.2-.6.8-.8,1.9-.8,3.3l-.1.1Z"/>
        <path class="st3" d="M59,68.8l-2.1-6.8c0-.3-.2-.6-.3-.9,0-.3-.2-.6-.2-.8,0-.3-.1-.5-.2-.7,0-.2,0-.4-.1-.6h0c0,.2,0,.4-.1.6,0,.2-.1.5-.2.7,0,.3-.1.5-.2.8,0,.3-.2.6-.3.9l-2.2,6.8h-2l-3.2-11.7h1.8l1.7,6.5c.1.4.2.8.3,1.3.1.4.2.8.3,1.2,0,.4.1.7.2,1h0c0-.2,0-.4.1-.6,0-.2.1-.5.2-.8,0-.3.1-.6.2-.8,0-.3.2-.5.2-.8l2.2-6.8h1.9l2.1,6.8c.1.3.2.7.3,1.1s.2.7.3,1.1.1.7.2.9h0c0-.2,0-.5.2-.9,0-.4.2-.7.3-1.2.1-.4.2-.9.3-1.3l1.7-6.5h1.8l-3.2,11.7h-2.1l.1-.2Z"/>
        <path class="st3" d="M71,56.9c1,0,1.9.2,2.6.7.7.4,1.3,1.1,1.6,1.9s.6,1.7.6,2.8v1.1h-8.1c0,1.4.4,2.4,1,3.1.7.7,1.6,1.1,2.8,1.1s1.4,0,2-.2c.6-.1,1.2-.3,1.8-.6v1.6c-.6.3-1.2.5-1.8.6s-1.3.2-2.1.2c-1.1,0-2.1-.2-2.9-.7s-1.5-1.1-1.9-2c-.5-.9-.7-2-.7-3.3s.2-2.4.6-3.3c.4-.9,1-1.6,1.8-2.1s1.7-.7,2.7-.7v-.2ZM70.9,58.4c-.9,0-1.7.3-2.3.9s-.9,1.5-1,2.6h6.2c0-.7-.1-1.3-.3-1.8-.2-.5-.5-.9-1-1.2-.4-.3-1-.4-1.6-.4v-.1Z"/>
        <path class="st3" d="M84.1,56.9h.7c.3,0,.5,0,.7.1l-.2,1.6c-.2,0-.4,0-.6-.1h-.7c-.5,0-.9,0-1.3.3-.4.2-.8.5-1.1.8s-.6.8-.7,1.3c-.2.5-.3,1-.3,1.6v6.3h-1.8v-11.7h1.5l.2,2.2h0c.2-.4.5-.8.9-1.2.3-.4.7-.6,1.2-.9.5-.2,1-.3,1.5-.3h0Z"/>
        <path class="st3" d="M92.2,56.9c1,0,1.9.2,2.6.7.7.4,1.3,1.1,1.6,1.9s.6,1.7.6,2.8v1.1h-8.1c0,1.4.4,2.4,1,3.1.7.7,1.6,1.1,2.8,1.1s1.4,0,2-.2c.6-.1,1.2-.3,1.8-.6v1.6c-.6.3-1.2.5-1.8.6-.6.1-1.3.2-2.1.2-1.1,0-2.1-.2-2.9-.7s-1.5-1.1-1.9-2c-.5-.9-.7-2-.7-3.3s.2-2.4.6-3.3c.4-.9,1-1.6,1.8-2.1s1.7-.7,2.7-.7v-.2ZM92.2,58.4c-.9,0-1.7.3-2.3.9s-.9,1.5-1,2.6h6.2c0-.7-.1-1.3-.3-1.8s-.5-.9-1-1.2c-.4-.3-1-.4-1.6-.4v-.1Z"/>
        <path class="st3" d="M104.1,69c-1.5,0-2.7-.5-3.5-1.5s-1.3-2.5-1.3-4.5.4-3.5,1.3-4.6c.9-1,2.1-1.5,3.5-1.5s1.2,0,1.6.2c.5.2.9.4,1.2.7.3.3.6.6.8.9h.1v-6.5h1.8v16.6h-1.4l-.3-1.7h0c-.2.3-.5.7-.8,1s-.7.5-1.2.7-1,.3-1.6.3l-.2-.1ZM104.4,67.6c1.3,0,2.1-.4,2.7-1.1.5-.7.8-1.8.8-3.2v-.3c0-1.5-.2-2.6-.7-3.4-.5-.8-1.4-1.2-2.7-1.2s-1.9.4-2.4,1.3c-.5.8-.8,2-.8,3.4s.3,2.5.8,3.3,1.4,1.2,2.5,1.2h-.2Z"/>
        <path class="st3" d="M120.8,52.2v6.6h0c.3-.5.8-1,1.4-1.3.6-.4,1.4-.5,2.3-.5,1.5,0,2.6.5,3.5,1.5s1.3,2.5,1.3,4.5-.2,2.4-.6,3.3c-.4.9-1,1.6-1.7,2-.7.5-1.6.7-2.6.7s-1.7-.2-2.3-.5-1.1-.8-1.4-1.3h-.1l-.4,1.6h-1.3v-16.6h1.9ZM124.2,58.4c-.8,0-1.5.2-2,.5s-.9.8-1.1,1.5-.3,1.5-.3,2.5h0c0,1.6.2,2.7.7,3.5s1.4,1.2,2.7,1.2,1.9-.4,2.5-1.2c.5-.8.8-1.9.8-3.4s-.3-2.6-.8-3.4-1.4-1.1-2.5-1.1h0v-.1Z"/>
        <path class="st3" d="M130.5,57.1h1.9l2.6,6.8c.1.4.3.8.4,1.1.1.4.2.7.3,1.1,0,.3.2.7.2,1h0c0-.4.2-.8.4-1.4s.4-1.2.6-1.8l2.4-6.8h1.9l-5.1,13.4c-.3.7-.6,1.3-.9,1.9-.4.5-.8.9-1.3,1.2s-1.1.4-1.9.4h-.9c-.3,0-.5,0-.7-.1v-1.4h1.3c.4,0,.8,0,1.1-.3.3-.2.6-.4.8-.7s.4-.7.6-1.1l.6-1.6-4.7-11.7h.4Z"/>
      </g>
    </g>
  </g>
</svg>