<?xml version="1.0" encoding="UTF-8"?>
<svg id="Camada_1" xmlns="http://www.w3.org/2000/svg" version="1.1" viewBox="0 0 1024 1024">
  <!-- Generator: Adobe Illustrator 30.0.0, SVG Export Plug-In . SVG Version: 2.1.1 Build 123)  -->
  <defs>
    <style>
      .st0 {
        fill: #fff;
      }

      .st1, .st2 {
        fill: #181828;
      }

      .st2 {
        font-family: Poppins-Bold, Poppins;
        font-size: 83.07px;
        font-weight: 700;
      }
    </style>
  </defs>
  <g>
    <path class="st1" d="M475.6,155.59c13.18-1.8,32.26-.95,45.6,0,16.29,1.16,34.67,2.95,50.69,6.24,10.16,2.09,23.13,6.73,32.97,10.25,12.62,4.51,24.61,9.41,36.41,15.79,13.75,7.38,25.46,18.08,39.32,25.27,9.14,4.74,19.05,8.18,28.57,12.07,22.15,9.06,38.48,22.29,53.63,40.59,20.62,24.9,32.32,52.57,36.68,84.51,5.92,41.78-5.1,84.19-30.6,117.81-18.65,24.2-43.87,42.52-72.65,52.77-5.69,2.02-11.45,3.87-17.25,5.55-4.63,1.36-9.46,2.57-13.89,4.39-21.96,9.03-40.83,22.46-57.89,38.89-13.89,13.37-22.36,28.18-27.29,46.97-6.06,23.14-9.03,54.25-38.6,58.43-11.44,1.26-22.67.23-32.05-7-9.95-7.66-11.02-20.55-15.58-30.83-5.31-12-14.77-35.83-25.21-42.97-7.69-.23-14.91.16-22.69-.45-29.81-2.37-59.97-14.14-80.87-36-3.43-3.59-9.17-12.2-12.11-14.28-11.53,3.37-26.15,4.65-38.24,4.38-3.19-.07-6.65-.79-9.82-1.05-50.94-4.08-92.1-45.93-105.9-93.45-14.48-49.37-5.41-107.54,19.03-152.65,25.37-46.03,72.07-85.7,119.05-108.18,19.64-9.39,43.62-18.03,64.61-23.98,17.62-4.88,35.54-8.57,53.65-11.05,2.47-.74,17.2-1.87,20.41-2.01Z"/>
    <path class="st0" d="M486.5,161.53c8.46,1.6,17.38,3.42,25.91,4.26,20.96,2.06,41.68,4.19,62.22,9.09,4.76,1.14,9.6,2.97,14.36,4.18,8.26,2.12,16.6,4.46,24.48,7.76l2.35,1.68-.13.35c-.86.3-1.43.45-2.25.87-8.55-2.1-11.08-1.71-19.36-2.64-15.81-1.77-30.52-1.34-46.35-1.46-5.54-.04-16.33.63-21.2-.25-2.85-.52-11.66-6.73-15.79-8.56l-.33-.14c-1.88-1.33-15.34-8.49-17.58-9.46-3.92-2.66-7.32-3.22-10.88-5.56l4.55-.12Z"/>
    <path class="st1" d="M455.19,157.59c2.47-.74,17.2-1.87,20.41-2.01-.68.57-.94.74-1.75,1.08l-.58.85c.57.98.66.86,2.07,1.35l.29.05c4.42.75,7.24.05,10.87,2.62l-4.55.12c3.57,2.34,6.96,2.9,10.88,5.56,2.23.97,15.7,8.13,17.58,9.46-1.96.16-14.15-3.47-16.85-4.74l.19.02c-.56-.3-4.35-2.36-4.67-2.37-6.29-.18-11.71-3.29-17.67-5.16-1.92-.6-9.45-3.63-8.94-6.21-.28,1.41.33-2.45.11-.78l.97-.22c-1.39-.61-2.15.84-2.42.8-1.7-.26-4.22-.29-5.93-.44Z"/>
    <path class="st1" d="M475.34,158.86l.29.05c4.42.75,7.24.05,10.87,2.62l-4.55.12c3.57,2.34,6.96,2.9,10.88,5.56-2.43-.36-19.41-6.43-20.19-7.8.71-.62,1.52-.45,2.7-.55Z"/>
    <path class="st1" d="M613.47,186.82l1.31.2c3.01.15,5.28,2.09,8.99,1.33,3.51-.72,12.33,4.48,9.17,8.54.21.32.41.6.53.96-2.07-.57-10.59-4.31-12.15-5.63-2.81-1.09-4.87-1.99-7.86-2.5.82-.42,1.39-.57,2.25-.87l.13-.35-2.35-1.68Z"/>
    <path class="st1" d="M613.47,186.82l1.31.2c1.99,1.24,8.91,3.46,9.44,4.76-1.01.63-1.51.4-2.92.44-2.81-1.09-4.87-1.99-7.86-2.5.82-.42,1.39-.57,2.25-.87l.13-.35-2.35-1.68Z"/>
    <path class="st0" d="M637.64,227.22c-.95.05-8.09-3.32-9.6-3.81-1.55-.14-2.48-2.62-3.36-3.02-4.45-2.04-9.71.48-12.64-4.37l.33-.98c3.03-1.48,9.96.49,12.56,2.52l.46.37c10.38,1.9,21.05,1.84,31.38,4.01,7.49,1.57,15.19,3.25,22.51,5.58,34.97,11.16,59.88,20.74,80.83,52.44,39.4,59.61,41.68,137.92-9.46,191.41-22.74,23.76-55.08,41.85-88.08,46.91-26.86,3.21-69.68-.4-85.84-24.85-10.7-15.44-11.21-34.16-8.01-52.06,3.63-20.28,12.28-36.11,29.47-48.08,27-18.81,71.59-12.49,89.63,15.98,12.58,19.86,8.91,39.62-11.5,51.95-12.24,7.4-25.86,11.85-40.27,8.7-14.78-3.24-23.81-13.33-18.2-28.78,3.27,2.42,6.27,5.22,9.74,7.31,5.15,3.11,11.14,5.36,17.24,4.33,15.95-2.67,25.31-26.22,10.14-36.19-6.29-4.14-14.71-5.58-21.95-4.03-17.95,3.85-30.06,27.3-25.85,44.55,1.73,7.09,5.58,14.14,11.95,18.02,11.85,7.07,30.23,7.32,43.14,4.37,23.53-5.38,48.19-26.87,60.32-47.38,15.88-26.85,15.16-73.73,8.43-103.24-8.22-36.04-36.93-69.66-68.06-88.61-7.88-4.85-17.03-8.67-25.32-13.08Z"/>
    <path class="st1" d="M637.64,227.22c-.95.05-8.09-3.32-9.6-3.81-1.55-.14-2.48-2.62-3.36-3.02-4.45-2.04-9.71.48-12.64-4.37l.33-.98c3.03-1.48,9.96.49,12.56,2.52l.46.37c-1.09,0-2.45-.12-3.39.3l-.08.32c1.74.79,4.1,1.3,5.28,1.83,2.64,1.19,8.26,4.96,10.44,6.83Z"/>
    <path class="st0" d="M268,336.2c20.16-.8,30.9,2.43,47.71,12.71-.22,4.32-1.26,7.75-2.69,11.94-4.15,12.15-8.53,24.38-11.37,36.92-.88,3.86-1.23,7.94-1.98,11.73-4.34,21.88-2.42,43.88-3.64,65.88-16.94,1.02-33.05-.73-50.17,2.91-7.42,1.47-12.73,3.23-19.72,4.84-14.43-20.3-21.96-50-22.93-74.79-.05-12.79,2.07-49.27,10.2-58.14,7.66-8.36,43.68-13.66,54.58-13.99Z"/>
    <path class="st0" d="M461.32,357.73c8.84-.59,16.92,1.59,25.1,4.5,2.12,9-1.57,13.55-5.4,21.26-2.89,5.83-5.9,11.72-8.27,17.78-4.3,11.17-7.81,22.64-10.5,34.3-1.5,6.53-5.28,32.64-10.82,35.31-8.08,3.89-24.81,4.02-34.5,5.49-19.14,2.92-32.42,9.09-48.63,19.14-4.13,2.97-9.87,7.33-14.31,9.56-6.07-32.06.68-68.61,10.39-99.3,6.42-20.3,8-19.34,26.16-28.46,24.27-12.19,43.56-17.77,70.78-19.58Z"/>
    <path class="st0" d="M511.97,270.93c23.62-2.26,73,8.63,90.21,24.85-10.65,4.58-13.15,4.11-23.81,6.86-9.6,2.46-18.85,6.11-27.53,10.87-6.29,3.42-12.31,7.31-18.02,11.63-6.39,4.77-29.03,24.8-33.99,26.05-7.69,1.93-21.16-1.18-29.35-1.44-8.43-.26-17.01.72-25.38,1.72-22.24,2.67-42.95,10.93-62.51,21.41-1.82.97-3.79,1.88-5.66,2.78,2.16-3.7,4.01-8.88,6.39-12.34,21.72-31.51,42.64-69.85,80.35-84.35,3.04-1.17,6.79-2.74,9.97-3.31,12.98-2.31,26.21-3.36,39.34-4.73Z"/>
    <path class="st0" d="M504.85,367.08c.86-.05,1.72-.07,2.57-.04,20.16.7,46.55,22.4,59.66,36.64,1.22,6.04-1.36,7.56-3.37,12.93-3.1,8.23-5.41,16.73-6.89,25.4-1.29,7.76-1.53,24.15-.16,31.81,2.76,15.43,2.53,26.85-1.54,42.03-1.4,5.25-3.55,10.72-4.08,16.28-4.17-2.75-6.71-6.34-9.73-10.22-12.64-16.9-24.32-26.61-43.7-35.2-9.87-4.38-24.87-8.36-30.53-18.19-2.23-3.87-.14-10.98.39-15.19,1.79-14.37,6.35-31.17,11.63-44.69,4.43-11.35,14.51-36.47,25.77-41.56Z"/>
    <path class="st0" d="M323.42,240.93c20.24-.03,36.51,2.18,54.88,11.32,1.73.86,4.36,2,5.02,3.87-.13,2.43-1.4,4.06-2.8,6.01-8.97,12.51-19.75,23.37-29.42,35.38-8.28,10.2-14.77,21.35-23.75,31.01-8.98,9.67-19.04,5.25-30.17,3.01-9.62-1.93-18.69-2.68-28.46-2.68-14.18.22-41.35,5.97-54.23,11.99,5.99-26.36,26.53-58.67,45.25-78.32,19.89-20.88,36.82-21.21,63.68-21.61Z"/>
    <path class="st0" d="M590.18,227.22c2.82-.25,8.41-.14,11.12.19,36.52,4.37,72.19,22.92,95.15,51.95,14.82,18.74,27.08,44.02,30.16,67.95.56,4.39.23,9.3-.23,13.64-1.75-5.82-3.61-10.9-6.81-16.12-15.27-24.86-35.34-36.54-62.9-43.48-4.07-.92-7.88-1.93-12.02-2.5-5.42-.74-17.56-1.74-22.51-3.65-8.87-3.43-18.52-9.99-27.43-14.48-34.54-17.41-71.63-20.81-109.33-13.86-4.76.88-10.01,1.47-14.61,2.67-1.26.33-1.44.77-2.62.45,3.29-3.52,13.98-9.23,18.5-11.65,33.2-17.78,65.87-28.9,103.54-31.1Z"/>
    <path class="st0" d="M432.03,483.02c7.11-.31,14.82-.22,21.72,1.46,3.91,7.79,4.42,21.74,5.86,30.46,2.98,17.97,9.07,34.73,15.76,51.6,1.91,4.83,5.12,10.29,6.25,15.19-17.99,4.56-49.93.23-67.55-5.49-11.24-4.09-23.36-10.43-32.51-17.99-10.09-8.53-16.85-21.35-21.66-33.45-1.48-3.72-5.01-9.08-1.28-12.25,21.57-18.29,45.06-28.52,73.4-29.53Z"/>
    <path class="st0" d="M606.23,303.55c5.45-.54,11.8,2.07,16.4,4.78,12.93,7.65,30.94,39.17,36.88,53.13,1.83,4.29,3.07,8.73,4.24,13.24-2.76-.69-5.67-.77-8.37-1.34-22.26-4.72-47.29-2.45-65.96,11.55-4.91,3.69-9.51,8.5-14.23,12.75-.29.24-1.87,1.22-2.27,1.48-10.3-10.57-21.74-19.97-34.1-28.03-6.01-3.87-12.54-7.17-18.38-11.3-1.68-1.19-4.51-3.64-4.72-5.73-.18-1.78,1.02-3.9,2.13-5.22,3.51-4.2,8.42-8.23,12.72-11.63,12.39-9.79,26.73-18.34,41.33-24.37,5.74-2.37,12.54-4.08,18.51-5.6,5.29-1.35,10.4-3.07,15.82-3.7Z"/>
    <path class="st0" d="M450.25,171.09c3.49-.43,11.73-.18,15.15.09,12.25.96,40.22,9.09,47.81,18.29-14.04,6.16-30.97,9.4-45.1,15.58-13.07,5.71-26.05,12.11-37.92,20.03-9.66,6.44-19.02,13.42-28.71,19.79-1.73,1.14-3.2,1.93-5.28,1.85-5.22-.19-10.37-2.58-15.41-4.1-7.12-2.2-14.3-4.19-21.53-5.97-13.73-2.94-24.89-2.36-38.71-2.43-12.61-.07-20.29.09-32.53,3.66,11.36-10.02,19.1-14.32,31.8-21.96,31.32-18.84,65.43-32.65,101.21-40.18,9.09-1.91,19.95-4.03,29.22-4.63Z"/>
    <path class="st0" d="M328.14,353.32c.24.01.49.03.73.05,8.27.8,27.55,19.13,33.04,25.7-2.53,10.56-7.68,19.83-10.58,30.37-4.16,14.99-7.38,30.32-9.28,45.77-1.9,15.41-.18,30.93-.44,46.27l-2.53-2.06c-8.96-6.99-17.64-12.28-27.37-18.09-3.5-2.09-6.84-5.47-7.42-9.59-.73-5.24-.73-11.11-.78-16.43-.22-26.14,4.06-52.12,12.64-76.82,3.78-11.02,5.57-15.46,11.98-25.19Z"/>
    <path class="st0" d="M522.59,195.49c2.75-.11,4.47-.13,6.92,1.5,4.4,2.93,20.56,18.36,21.49,22.32-1.31,3.37-18.44,6.57-22.87,7.91-28.77,8.69-52.9,22.07-77.16,39.57-5.4,3.89-10.28,8.23-15.78,11.98l-3.15,1.93c-4.66-6.22-23.42-18.76-24.55-24.86-.25-1.33.25-2.54,1.01-3.61,2.41-3.38,7.11-6.29,10.45-8.83,25.8-19.68,56.75-33.68,87.61-43.23,5.25-1.63,10.64-3.65,16.04-4.68Z"/>
    <path class="st0" d="M634,306.6c17,1.23,34.45,5.38,49.54,13.36,38.45,20.32,51.79,71,31.8,108.68-2.27,3.48-5.14,6.85-7.77,10.09-.36-21.55-6.45-35.23-22.49-49.72-10.1-9.13-11.8-10.64-15.92-23.64-5.53-17.46-16.39-33.42-27.27-47.93-2.66-3.55-5.17-7.3-7.89-10.84Z"/>
    <path class="st0" d="M394.92,262.02c7.29-.42,27.27,17.51,33.35,22.79-5.37,7.1-13.96,14.94-19.9,22.07-16.59,19.94-31.29,40.55-42.31,64.04l-1.41,2.65c-3.48-3.82-7.69-9.21-11.35-12.88-3.81-3.82-15.54-14.17-17.44-17.94-2.95-5.87,10.41-25.6,14.24-30.8,9.57-12.91,19.14-24.79,30.18-36.3,4.33-4.51,9.43-10.48,14.64-13.64Z"/>
    <path class="st0" d="M468.22,487.3c13.94-1.33,41.08,12.4,51.89,21.27,8.48,6.96,15.74,16.26,19.21,26.72,2.43,7.33,4.03,8.76-1.64,14.98-10.35,11.36-31.14,25.52-46.74,26.91-2.73-2.85-3.71-5.62-5.3-9.18-8.36-18.73-15.04-38.44-18.55-58.68-1.03-5.94-1.5-13.47-.02-19.35l1.15-2.67Z"/>
    <path class="st0" d="M270.11,483.34c7-.21,13.88-.16,20.87-.02,10.11.2,10.28,6.06,13.16,14.13,1.81,5.01,3.68,10,5.6,14.98,3.79,9.69,7.64,16.35,12.37,25.47-9.51.88-23.65-2.02-32.99-4.41-4.43-1.32-8.78-2.91-13.03-4.74-14.59-6.32-38.88-24.47-44.67-39.14,3.26-.86,7.17-2.29,10.39-2.96,9.75-2.02,18.41-3,28.3-3.31Z"/>
    <path class="st0" d="M511.06,645.13c.23,1.77,1.26,6.07-.58,6.95-3.8-2.09-3.23-15.32-4.8-19.05-4.7-11.17-10.47-22.27-16.49-32.78-1.31-2.29-3.58-6.23-2.99-8.8.48-.51,1.29-.96,1.97-1.05,6.48-.92,12.4-3.27,18.55-5.31,8.35-2.76,15.14-6.83,22.71-11.22-.27,4.31-.16,10.11-.18,14.51-.08,17.65.9,35.35.38,53-2.03-1.08-3.18-1.51-5.32-2.31.69,4.83,3.2,10.39,5.15,14.89,3.61,2.14,2.44,7.48.46,10.39-.16.24-.2.36-.31.63l-.16.45c-4.01,1.77-15.12-8.05-16-12.17-.58-2.7-.94-4.89-2.12-7.6l-.24-.54Z"/>
    <path class="st1" d="M529.44,653.98c3.61,2.14,2.44,7.48.46,10.39-.16.24-.2.36-.31.63.42-4.85.62-6.31-.14-11.02Z"/>
    <path class="st0" d="M538.38,194.77c42.76-1.62,77.74-4.34,116.87,16.49-.97,2.69-2.08,2.08-4.33,3.57-3.87-.37-7.8-.64-11.64-1.2-3.73-.55-7.4-1.43-11.17-1.79-5.03-.47-10.27-.27-15.32-.24-6.18.04-12.49-.04-18.65.55-6.14.59-12.51,1.68-18.6,2.69-4.23.71-11.39,3.24-15.39,2.45-1.23-.24-20.45-20.52-21.78-22.53Z"/>
    <path class="st0" d="M308.76,489.68c11.51,4.43,29.38,15.39,35.07,26.61,1.01,2,5.49,17.74,4.74,19.4l-1.35.24c-5.96.21-11.38,1.71-17.26,2.18-7.91-12.8-17.64-33.95-21.19-48.44Z"/>
    <path class="st0" d="M636.75,421.95c16.56-1.6,21.8,14.61,7.08,19.5-2.9.66-5.93.41-8.68-.71-10.03-4.09-8.17-15.46,1.6-18.79Z"/>
    <path class="st1" d="M452.82,475.93l5.35-1.35c4.23,3.55,4.96,6.97,7.79,11.52.68,1.09,1.17.99,2.26,1.2l-1.15,2.67c-.59.89-.3.74-1.13,1.18-3.52-6.63-7.32-10.67-13.12-15.22Z"/>
    <path class="st1" d="M655.26,211.26c.66.36,1.94,1.1,2.58,1.33,2.81.41,8.98.73,9.39,4.44-.97.98-2.55.56-3.87.41l1.53.51c-5.32-.53-7.66-2.39-11.44-2.78l-2.52-.34c2.24-1.49,3.36-.88,4.33-3.57Z"/>
    <path class="st1" d="M655.26,211.26c.66.36,1.94,1.1,2.58,1.33,1.16.75,2.39,1.59,3.58,2.28-2.66.13-5.32.22-7.97.3l-2.52-.34c2.24-1.49,3.36-.88,4.33-3.57Z"/>
  </g>
  <text class="st2" transform="translate(20.14 779.38)"><tspan x="0" y="0">SMART ASSET CONTROL</tspan></text>
</svg>