<?xml version="1.0" encoding="UTF-8"?>
<svg id="Camada_1" xmlns="http://www.w3.org/2000/svg" version="1.1" viewBox="0 0 2048 1024">
  <!-- Generator: Adobe Illustrator 30.0.0, SVG Export Plug-In . SVG Version: 2.1.1 Build 123)  -->
  <defs>
    <style>
      .st0 {
        fill-rule: evenodd;
      }

      .st0, .st1 {
        fill: #fff;
      }

      .st2 {
        fill: #181828;
      }
    </style>
  </defs>
  <g id="ManualDeIdentidadeCorporativaSet2009">
    <g id="g422">
      <g id="g424">
        <g>
          <g id="g430">
            <path id="path432" class="st0" d="M1091.88,512.08l.62,5.18,3.14-7.01c-1.26.62-2.51,1.22-3.77,1.84"/>
          </g>
          <g id="g434">
            <path id="path436" class="st1" d="M1091.88,512.08l.62,5.18,3.14-7.01c-1.26.62-2.51,1.22-3.77,1.84"/>
          </g>
          <g id="g438">
            <path id="path440" class="st0" d="M1095.64,510.26l11.29-23.14,15.06-32c-4.7-3.34-9.73-5.48-15.06-7.91-33.23-14.32-66.15-6.1-98.14,24.05l-4.39-24.66c-35.74,23.75-71.48,45.08-110.36,63.96-.95.61-2.51,1.22-3.45,1.53l2.51,24.67h.95c14.74-4.27,24.45-.92,24.77,17.96v146.22c0,8.52,0,16.44-1.26,24.05,40.75-24.66,87.16-47.51,134.82-65.49v-45.07c-9.73,20.39-44.21,23.45-44.21-6.1v-44.17c-.31-30.76,14.73-43.86,19.12-48.13,11.29-9.74,26.65-5.49,27.91,9.74.94,11.59-1.88,23.78-8.16,37.17l19.43,7.91,26.03-53.6-.64-5.18c1.26-.61,2.51-1.22,3.77-1.84"/>
          </g>
          <g id="g442">
            <path id="path444" class="st2" d="M1095.64,510.26l11.29-23.14,15.06-32c-4.7-3.34-9.73-5.48-15.06-7.91-33.23-14.32-66.15-6.1-98.14,24.05l-4.39-24.66c-35.74,23.75-71.48,45.08-110.36,63.96-.95.61-2.51,1.22-3.45,1.53l2.51,24.67h.95c14.74-4.27,24.45-.92,24.77,17.96v146.22c0,8.52,0,16.44-1.26,24.05,40.75-24.66,87.16-47.51,134.82-65.49v-45.07c-9.73,20.39-44.21,23.45-44.21-6.1v-44.17c-.31-30.76,14.73-43.86,19.12-48.13,11.29-9.74,26.65-5.49,27.91,9.74.94,11.59-1.88,23.78-8.16,37.17l19.43,7.91,26.03-53.6-.64-5.18c1.26-.61,2.51-1.22,3.77-1.84"/>
          </g>
          <g id="g446">
            <path id="path448" class="st0" d="M853.91,612.3v-113.02c0-17.35,13.8-21.93,26.33-17.35,3.45-6.4,8.47-12.49,13.8-18.59,1.57-.91,2.52-2.43,3.77-3.95-1.25-.31-2.19-1.22-3.77-1.83-37.93-19.8-74.31-17.98-102.82,7.61-23.84-14.01-48.29-21.62-71.8-23.75v65.79c1.87-.3,3.44-.3,4.7-.3,20.68-1.52,37.3,9.13,39.18,34.71v79.51c-2.49,24.36-17.56,37.15-41.08,33.8-.93,0-1.87,0-2.8-.61v62.44l43.26-25.58-.31,32.9c40.76-24.67,83.39-46.6,130.74-64.58v-41.11c-7.83,20.41-39.19,19.8-39.19-6.09M719.42,441.42c-64.9-5.18-121.04,35.02-135.15,101.13-2.18,9.74-3.13,20.72-3.45,31.68,0,16.44.94,32.28,3.45,46.29,9.09,55.13,37.32,91.68,91.25,105.08,11.59,3.36,23.19,1.84,34.48-3.34l9.42-5.19v-62.74c-31.67-5.79-42.96-38.98-43.59-74.01-.95-41.73,13.16-68.54,43.59-72.8v-66.1"/>
          </g>
          <g id="g450">
            <path id="path452" class="st2" d="M853.91,612.3v-113.02c0-17.35,13.8-21.93,26.33-17.35,3.45-6.4,8.47-12.49,13.8-18.59,1.57-.91,2.52-2.43,3.77-3.95-1.25-.31-2.19-1.22-3.77-1.83-37.93-19.8-74.31-17.98-102.82,7.61-23.84-14.01-48.29-21.62-71.8-23.75v65.79c1.87-.3,3.44-.3,4.7-.3,20.68-1.52,37.3,9.13,39.18,34.71v79.51c-2.49,24.36-17.56,37.15-41.08,33.8-.93,0-1.87,0-2.8-.61v62.44l43.26-25.58-.31,32.9c40.76-24.67,83.39-46.6,130.74-64.58v-41.11c-7.83,20.41-39.19,19.8-39.19-6.09M719.42,441.42c-64.9-5.18-121.04,35.02-135.15,101.13-2.18,9.74-3.13,20.72-3.45,31.68,0,16.44.94,32.28,3.45,46.29,9.09,55.13,37.32,91.68,91.25,105.08,11.59,3.36,23.19,1.84,34.48-3.34l9.42-5.19v-62.74c-31.67-5.79-42.96-38.98-43.59-74.01-.95-41.73,13.16-68.54,43.59-72.8v-66.1"/>
          </g>
          <g id="g454">
            <path id="path456" class="st0" d="M404.94,532.19l-216.65-121.85c-7.85-35.33,40.13-73.1,97.2-54.82,42.95,14.32,50.16,45.69,38.56,95.34l40.13,22.84c10.67-36.55,24.77-71.58,40.77-105.68,5.33-10.36,10.34-20.42,15.68-30.77-4.72-3.04-10.35-5.79-15.68-8.22-79.32-40.82-167.43-53.61-242.36-19.8-74.31,36.55-103.15,97.16-90.3,175.45l206.93,117.88c10.66,5.49,10.66,12.78,8.14,19.48-14.11,39-85.91,71.59-125.73,15.23-14.41-19.79-13.78-50.26-10.34-79.2l-37.62-20.71c-15.68,44.77-40.44,90.77-69.3,139.81,73.69,45.08,164.61,72.19,244.56,50.26,56.43-15.84,98.13-52.7,116.01-98.38,11.92-28.64,14.11-60.61,6.59-93.82l-6.59-3.04"/>
          </g>
          <g id="g458">
            <path id="path460" class="st2" d="M404.94,532.19l-216.65-121.85c-7.85-35.33,40.13-73.1,97.2-54.82,42.95,14.32,50.16,45.69,38.56,95.34l40.13,22.84c10.67-36.55,24.77-71.58,40.77-105.68,5.33-10.36,10.34-20.42,15.68-30.77-4.72-3.04-10.35-5.79-15.68-8.22-79.32-40.82-167.43-53.61-242.36-19.8-74.31,36.55-103.15,97.16-90.3,175.45l206.93,117.88c10.66,5.49,10.66,12.78,8.14,19.48-14.11,39-85.91,71.59-125.73,15.23-14.41-19.79-13.78-50.26-10.34-79.2l-37.62-20.71c-15.68,44.77-40.44,90.77-69.3,139.81,73.69,45.08,164.61,72.19,244.56,50.26,56.43-15.84,98.13-52.7,116.01-98.38,11.92-28.64,14.11-60.61,6.59-93.82l-6.59-3.04"/>
          </g>
          <g id="g462">
            <path id="path464" class="st0" d="M531.29,608.34v-109.35l38.57-.61,14.42-33.21,3.13-7.92c-.94.91-2.2,1.22-3.13,1.83-14.75,7-23.2,8.83-38.57,7-7.52-.91-14.42-10.96-14.42-24.97v-62.75c-36.36,29.54-78.38,64.88-126.35,92.6-4.7,2.75-10.03,5.49-15.06,7.92l8.78,15.84c.93,1.82,3.14,3.66,6.27,4.27h37.62l-.31,201.96c0,8.52,0,16.44-1.26,24.05,41.08-24.66,87.17-47.51,134.82-65.49v-45.08c-9.72,20.41-44.52,23.47-44.52-6.09"/>
          </g>
          <g id="g466">
            <path id="path468" class="st2" d="M531.29,608.34v-109.35l38.57-.61,14.42-33.21,3.13-7.92c-.94.91-2.2,1.22-3.13,1.83-14.75,7-23.2,8.83-38.57,7-7.52-.91-14.42-10.96-14.42-24.97v-62.75c-36.36,29.54-78.38,64.88-126.35,92.6-4.7,2.75-10.03,5.49-15.06,7.92l8.78,15.84c.93,1.82,3.14,3.66,6.27,4.27h37.62l-.31,201.96c0,8.52,0,16.44-1.26,24.05,41.08-24.66,87.17-47.51,134.82-65.49v-45.08c-9.72,20.41-44.52,23.47-44.52-6.09"/>
          </g>
          <g id="g470">
            <path id="path472" class="st0" d="M1943.11,289.43c-.62,0-1.26-.61-1.56-.61h-.33v8.22h1.88c28.54.91,52.04,24.06,52.04,52.39s-23.5,51.18-52.04,52.09h-1.88v8.22h1.88c32.92-.91,60.51-27.41,60.51-60.31s-27.6-59.7-60.51-60M1941.23,288.82c-17.86,0-33.87,7.61-45.15,19.5-10.33,10.35-16.91,24.97-16.91,41.11s6.59,30.46,16.91,40.81c11.29,11.89,27.29,19.5,45.15,19.5v-8.22c-18.81,0-35.43-9.44-45.15-23.47-5.32-8.52-8.77-18.27-8.77-28.63,0-10.97,3.45-20.41,8.77-28.94,9.73-14.01,26.35-23.45,45.15-23.45v-8.22"/>
          </g>
          <g id="g474">
            <path id="path476" class="st1" d="M1943.11,289.43c-.62,0-1.26-.61-1.56-.61h-.33v8.22h1.88c28.54.91,52.04,24.06,52.04,52.39s-23.5,51.18-52.04,52.09h-1.88v8.22h1.88c32.92-.91,60.51-27.41,60.51-60.31s-27.6-59.7-60.51-60M1941.23,288.82c-17.86,0-33.87,7.61-45.15,19.5-10.33,10.35-16.91,24.97-16.91,41.11s6.59,30.46,16.91,40.81c11.29,11.89,27.29,19.5,45.15,19.5v-8.22c-18.81,0-35.43-9.44-45.15-23.47-5.32-8.52-8.77-18.27-8.77-28.63,0-10.97,3.45-20.41,8.77-28.94,9.73-14.01,26.35-23.45,45.15-23.45v-8.22"/>
          </g>
          <g id="g478">
            <path id="path480" class="st0" d="M1967.25,372.88l-.3-11.58c0-8.83-4.09-10.35-7.53-11.88,4.08-2.13,9.09-5.49,9.09-14.62,0-13.41-10.97-17.06-21.01-17.06h-4.39v7.62h4.7c4.39,0,11.6.3,11.6,9.74s-6.57,10.96-12.86,10.96h-3.45v7.31h4.39c10.04,0,10.98,6.1,10.98,11.28,0,2.43.62,11.88,1.57,15.53h10.65v-1.22c-2.83-1.52-2.83-3.04-3.45-6.09M1943.11,317.75h-25.39v62.44h8.77v-26.81h16.61v-7.31h-16.61v-20.71h16.61v-7.62"/>
          </g>
          <g id="g482">
            <path id="path484" class="st1" d="M1967.25,372.88l-.3-11.58c0-8.83-4.09-10.35-7.53-11.88,4.08-2.13,9.09-5.49,9.09-14.62,0-13.41-10.97-17.06-21.01-17.06h-4.39v7.62h4.7c4.39,0,11.6.3,11.6,9.74s-6.57,10.96-12.86,10.96h-3.45v7.31h4.39c10.04,0,10.98,6.1,10.98,11.28,0,2.43.62,11.88,1.57,15.53h10.65v-1.22c-2.83-1.52-2.83-3.04-3.45-6.09M1943.11,317.75h-25.39v62.44h8.77v-26.81h16.61v-7.31h-16.61v-20.71h16.61v-7.62"/>
          </g>
          <g id="g486">
            <path id="path488" class="st0" d="M1268.08,570.87l40.45-82.54,15.98-33.21c-5.33-3.34-10.64-6.09-15.98-8.52-33.23-13.71-66.47-5.49-98.46,24.66l-4.38-24.66c-32.29,21.32-63.96,40.81-98.77,58.48-3.44,1.83-7.52,3.35-11.29,5.18l-3.13,7.01,1.88,19.5c4.7-1.53,9.09-1.84,12.54-1.84,8.47.91,13.17,6.7,13.17,19.8v146.22c0,8.52,0,16.44-1.57,24.05,41.7-24.66,87.48-47.51,135.46-65.49v-45.07c-9.73,20.39-44.53,23.45-44.53-6.1v-44.17c-.31-30.76,14.74-43.86,19.45-48.13,11.29-9.74,26.34-5.49,27.91,9.74.93,11.59-1.88,23.78-7.85,37.17l19.12,7.91"/>
          </g>
          <g id="g490">
            <path id="path492" class="st2" d="M1268.08,570.87l40.45-82.54,15.98-33.21c-5.33-3.34-10.64-6.09-15.98-8.52-33.23-13.71-66.47-5.49-98.46,24.66l-4.38-24.66c-32.29,21.32-63.96,40.81-98.77,58.48-3.44,1.83-7.52,3.35-11.29,5.18l-3.13,7.01,1.88,19.5c4.7-1.53,9.09-1.84,12.54-1.84,8.47.91,13.17,6.7,13.17,19.8v146.22c0,8.52,0,16.44-1.57,24.05,41.7-24.66,87.48-47.51,135.46-65.49v-45.07c-9.73,20.39-44.53,23.45-44.53-6.1v-44.17c-.31-30.76,14.74-43.86,19.45-48.13,11.29-9.74,26.34-5.49,27.91,9.74.93,11.59-1.88,23.78-7.85,37.17l19.12,7.91"/>
          </g>
          <g id="g494">
            <path id="path496" class="st0" d="M1895.77,498.38l.3-1.52,16.63-39.61c-6.26,3.06-11.6,5.49-16.63,7.31-7.82,2.44-15.03,3.06-24.75,1.53-7.53-.92-14.12-10.98-14.74-24.99l.62-62.74c-31.35,24.67-68.35,54.52-106.9,79.2-16.62,7.92-25.4,10.96-41.7,8.53-7.21-.92-14.11-10.98-14.42-24.99v-62.74c-36.05,28.94-77.14,63.97-124.17,91.07-5.64,3.36-11.6,6.7-17.56,9.44l8.79,15.84c.94,1.82,3.13,4.26,7.52,4.26h36.36v201.96c0,8.52-.31,16.44-1.25,24.05,40.75-24.66,87.16-47.51,134.5-65.49v-45.07c-9.08,20.4-44.2,23.45-43.89-6.1v-109.35h73.36v201.96c0,8.52-.62,16.44-1.57,24.05,39.5-23.75,84.03-45.38,129.79-63.97,1.58-.61,3.47-.91,5.03-1.52v-45.07c-.94,2.43-3.13,5.18-5.03,7.31-13.15,13.7-38.87,12.17-38.87-13.41v-109.35l38.57-.61"/>
          </g>
          <g id="g498">
            <path id="path500" class="st2" d="M1895.77,498.38l.3-1.52,16.63-39.61c-6.26,3.06-11.6,5.49-16.63,7.31-7.82,2.44-15.03,3.06-24.75,1.53-7.53-.92-14.12-10.98-14.74-24.99l.62-62.74c-31.35,24.67-68.35,54.52-106.9,79.2-16.62,7.92-25.4,10.96-41.7,8.53-7.21-.92-14.11-10.98-14.42-24.99v-62.74c-36.05,28.94-77.14,63.97-124.17,91.07-5.64,3.36-11.6,6.7-17.56,9.44l8.79,15.84c.94,1.82,3.13,4.26,7.52,4.26h36.36v201.96c0,8.52-.31,16.44-1.25,24.05,40.75-24.66,87.16-47.51,134.5-65.49v-45.07c-9.08,20.4-44.2,23.45-43.89-6.1v-109.35h73.36v201.96c0,8.52-.62,16.44-1.57,24.05,39.5-23.75,84.03-45.38,129.79-63.97,1.58-.61,3.47-.91,5.03-1.52v-45.07c-.94,2.43-3.13,5.18-5.03,7.31-13.15,13.7-38.87,12.17-38.87-13.41v-109.35l38.57-.61"/>
          </g>
          <g id="g506">
            <path id="path508" class="st2" d="M1425.19,725.88c-51.47-2.64-94.8-32.42-116.65-73.98-10.66-19.81-16.63-42.04-16.63-65.8.62-23.75,5.96-47.51,16.63-68.22,21.32-43.56,63.33-75.84,117.26-79.81h.32c3.31-.02,6.35-.3,9.39-.3,64.9,0,116.93,45.38,134.5,105.69,1.57,5.79,3.14,10.95,4.09,16.14l-4.09,1.22-144.21,54.23-22.58,8.52c5.95,10.05,13.16,18.58,22.58,24.66l.27.18c11.56,7.5,26.21,11.09,45.82,10.19,42.01-8.53,68.33-29.54,85.59-54.82l12.54,16.45,17.56,23.14c-4.7,8.53-10.65,16.75-17.56,23.45-33.54,36.86-87.78,60.01-137,59.09h-7.21l-.6-.03ZM1422.65,500.21c-35.41.6-55.17,45.99-37.62,78.28l40.77-14.32,47.35-16.44c-7.53-26.51-22.9-45.39-47.35-47.51h-3.14Z"/>
          </g>
        </g>
      </g>
    </g>
  </g>
</svg>