<?xml version="1.0" encoding="UTF-8"?>
<svg id="svg2" xmlns="http://www.w3.org/2000/svg" xmlns:xlink="http://www.w3.org/1999/xlink" xmlns:svg="http://www.w3.org/2000/svg" xmlns:sodipodi="http://sodipodi.sourceforge.net/DTD/sodipodi-0.dtd" xmlns:rdf="http://www.w3.org/1999/02/22-rdf-syntax-ns#" xmlns:inkscape="http://www.inkscape.org/namespaces/inkscape" xmlns:dc="http://purl.org/dc/elements/1.1/" xmlns:cc="http://creativecommons.org/ns#" version="1.1" viewBox="0 0 4096 4096">
  <!-- Generator: Adobe Illustrator 30.0.0, SVG Export Plug-In . SVG Version: 2.1.1 Build 123)  -->
  <defs>
    <style>
      .st0 {
        fill-rule: evenodd;
      }

      .st0, .st1 {
        fill: #fff;
      }

      .st2 {
        clip-path: url(#clippath-1);
      }

      .st3 {
        clip-path: url(#clippath-3);
      }

      .st4 {
        clip-path: url(#clippath-4);
      }

      .st5 {
        clip-path: url(#clippath-2);
      }

      .st6 {
        clip-path: url(#clippath-7);
      }

      .st7 {
        clip-path: url(#clippath-6);
      }

      .st8 {
        clip-path: url(#clippath-5);
      }

      .st9 {
        clip-path: url(#clippath);
      }
    </style>
    <clipPath id="clippath">
      <rect class="st1" x="4758.07" y="239.09" width="3180.29" height="724.57"/>
    </clipPath>
    <clipPath id="clippath-1">
      <rect class="st1" x="4758.07" y="239.11" width="3180.29" height="724.55"/>
    </clipPath>
    <clipPath id="clippath-2">
      <rect class="st1" x="4758.07" y="239.09" width="3180.29" height="724.57"/>
    </clipPath>
    <clipPath id="clippath-3">
      <rect class="st1" x="4758.07" y="1922.17" width="3180.29" height="724.55"/>
    </clipPath>
    <clipPath id="clippath-4">
      <rect class="st1" x="492.51" y="1693.62" width="3110.98" height="708.76"/>
    </clipPath>
    <clipPath id="clippath-5">
      <rect class="st1" x="4743.04" y="3338.39" width="3211.5" height="758.44"/>
    </clipPath>
    <clipPath id="clippath-6">
      <rect class="st1" x="4760.15" y="3356.75" width="3180.3" height="724.55"/>
    </clipPath>
    <clipPath id="clippath-7">
      <rect class="st1" x="4743.04" y="3338.39" width="3211.5" height="758.44"/>
    </clipPath>
  </defs>
  <sodipodi:namedview id="namedview4" bordercolor="#666666" borderopacity="1" gridtolerance="10" guidetolerance="10" inkscape:current-layer="g10" inkscape:cx="2211.382" inkscape:cy="1135.3326" inkscape:pageopacity="0" inkscape:pageshadow="2" inkscape:window-height="838" inkscape:window-maximized="1" inkscape:window-width="1600" inkscape:window-x="-8" inkscape:window-y="-8" inkscape:zoom="0.078844494" objecttolerance="10" pagecolor="#ffffff" showgrid="false"/>
  <g id="g10" inkscape:groupmode="layer" inkscape:label="ManualDeIdentidadeCorporativaSet2009">
    <path id="path202" class="st1" d="M4485.62,1175.33h3725.16V27.39h-3725.16v1147.94Z" inkscape:connector-curvature="0"/>
    <path id="path204" class="st1" d="M4485.62,2858.42h3725.16v-1147.94h-3725.16v1147.94Z" inkscape:connector-curvature="0"/>
    <g id="g206">
      <g>
        <rect class="st1" x="4758.07" y="239.09" width="3180.29" height="724.57"/>
        <g class="st9">
          <g id="g208">
            <g id="g214">
              <path id="path216" class="st0" d="M6458.39,601.5l1.01,8.4,5.1-11.38c-2.05,1.01-4.07,1.98-6.12,2.98" inkscape:connector-curvature="0"/>
            </g>
            <g id="g218">
              <path id="path220" class="st1" d="M6458.39,601.5l1.01,8.4,5.1-11.38c-2.05,1.01-4.07,1.98-6.12,2.98" inkscape:connector-curvature="0"/>
            </g>
            <g id="g222">
              <path id="path224" class="st0" d="M6464.5,598.53l18.32-37.56,24.44-51.94c-7.63-5.43-15.79-8.89-24.44-12.84-53.94-23.25-107.38-9.9-159.29,39.04l-7.13-40.03c-58.01,38.55-116.02,73.18-179.14,103.81-1.54.99-4.07,1.98-5.61,2.49l4.07,40.05h1.54c23.93-6.92,39.69-1.5,40.21,29.16v237.35c0,13.83,0,26.69-2.05,39.04,66.15-40.03,141.48-77.13,218.84-106.3v-73.16c-15.79,33.11-71.76,38.07-71.76-9.9v-71.7c-.51-49.93,23.91-71.19,31.04-78.12,18.32-15.81,43.25-8.91,45.3,15.81,1.52,18.81-3.06,38.59-13.24,60.34l31.55,12.84,42.26-87.01-1.03-8.4c2.05-.99,4.07-1.98,6.12-2.98" inkscape:connector-curvature="0"/>
            </g>
            <g id="g226">
              <path id="path228" class="st1" d="M6464.5,598.53l18.32-37.56,24.44-51.94c-7.63-5.43-15.79-8.89-24.44-12.84-53.94-23.25-107.38-9.9-159.29,39.04l-7.13-40.03c-58.01,38.55-116.02,73.18-179.14,103.81-1.54.99-4.07,1.98-5.61,2.49l4.07,40.05h1.54c23.93-6.92,39.69-1.5,40.21,29.16v237.35c0,13.83,0,26.69-2.05,39.04,66.15-40.03,141.48-77.13,218.84-106.3v-73.16c-15.79,33.11-71.76,38.07-71.76-9.9v-71.7c-.51-49.93,23.91-71.19,31.04-78.12,18.32-15.81,43.25-8.91,45.3,15.81,1.52,18.81-3.06,38.59-13.24,60.34l31.55,12.84,42.26-87.01-1.03-8.4c2.05-.99,4.07-1.98,6.12-2.98" inkscape:connector-curvature="0"/>
            </g>
            <g id="g230">
              <path id="path232" class="st0" d="M6072.11,764.18v-183.45c0-28.17,22.39-35.6,42.74-28.17,5.61-10.39,13.75-20.27,22.39-30.17,2.55-1.48,4.09-3.95,6.12-6.42-2.02-.51-3.56-1.98-6.12-2.98-61.58-32.13-120.62-29.18-166.91,12.35-38.69-22.74-78.38-35.09-116.55-38.55v106.79c3.04-.49,5.59-.49,7.63-.49,33.57-2.47,60.54,14.82,63.6,56.35v129.06c-4.05,39.55-28.51,60.3-66.68,54.87-1.52,0-3.04,0-4.56-.99v101.36l70.22-41.53-.51,53.4c66.15-40.05,135.36-75.65,212.22-104.83v-66.74c-12.72,33.13-63.62,32.13-63.62-9.88M5853.79,486.8h0c-105.35-8.4-196.47,56.86-219.37,164.15-3.54,15.81-5.08,33.63-5.59,51.43,0,26.69,1.52,52.4,5.59,75.14,14.76,89.5,60.58,148.83,148.12,170.57,18.81,5.45,37.64,2.98,55.97-5.43l15.29-8.42v-101.85c-51.41-9.4-69.74-63.28-70.75-120.13-1.54-67.73,21.36-111.26,70.75-118.17v-107.3" inkscape:connector-curvature="0"/>
            </g>
          </g>
        </g>
      </g>
    </g>
    <g id="g234">
      <g>
        <rect class="st1" x="4758.07" y="239.11" width="3180.29" height="724.55"/>
        <g class="st2">
          <g id="g236">
            <g id="g242">
              <path id="path244" class="st1" d="M6072.11,764.18v-183.45c0-28.17,22.39-35.6,42.74-28.17,5.61-10.39,13.75-20.27,22.39-30.17,2.55-1.48,4.09-3.95,6.12-6.42-2.02-.51-3.56-1.98-6.12-2.98-61.58-32.13-120.62-29.18-166.91,12.35-38.69-22.74-78.38-35.09-116.55-38.55v106.79c3.04-.49,5.59-.49,7.63-.49,33.57-2.47,60.54,14.82,63.6,56.35v129.06c-4.05,39.55-28.51,60.3-66.68,54.87-1.52,0-3.04,0-4.56-.99v101.36l70.22-41.53-.51,53.4c66.15-40.05,135.36-75.65,212.22-104.83v-66.74c-12.72,33.13-63.62,32.13-63.62-9.88M5853.79,486.8h0c-105.35-8.4-196.47,56.86-219.37,164.15-3.54,15.81-5.08,33.63-5.59,51.43,0,26.69,1.52,52.4,5.59,75.14,14.76,89.5,60.58,148.83,148.12,170.57,18.81,5.45,37.64,2.98,55.97-5.43l15.29-8.42v-101.85c-51.41-9.4-69.74-63.28-70.75-120.13-1.54-67.73,21.36-111.26,70.75-118.17v-107.3" inkscape:connector-curvature="0"/>
            </g>
            <g id="g246">
              <path id="path248" class="st0" d="M5343.33,634.14l-351.67-197.79c-12.74-57.34,65.14-118.66,157.78-88.99,69.72,23.25,81.42,74.17,62.59,154.76l65.14,37.07c17.31-59.33,40.21-116.19,66.17-171.54,8.65-16.83,16.79-33.15,25.45-49.95-7.65-4.94-16.81-9.4-25.45-13.34-128.76-66.25-271.77-87.03-393.41-32.13-120.62,59.33-167.43,157.71-146.58,284.79l335.9,191.35c17.31,8.91,17.31,20.75,13.22,31.63-22.9,63.3-139.45,116.21-204.08,24.72-23.39-32.13-22.37-81.58-16.79-128.56l-61.07-33.61c-25.45,72.67-65.65,147.35-112.48,226.94,119.61,73.18,267.2,117.18,396.97,81.58,91.6-25.72,159.29-85.55,188.31-159.7,19.34-46.49,22.9-98.39,10.69-152.29l-10.69-4.94" inkscape:connector-curvature="0"/>
            </g>
            <g id="g250">
              <path id="path252" class="st1" d="M5343.33,634.14l-351.67-197.79c-12.74-57.34,65.14-118.66,157.78-88.99,69.72,23.25,81.42,74.17,62.59,154.76l65.14,37.07c17.31-59.33,40.21-116.19,66.17-171.54,8.65-16.83,16.79-33.15,25.45-49.95-7.65-4.94-16.81-9.4-25.45-13.34-128.76-66.25-271.77-87.03-393.41-32.13-120.62,59.33-167.43,157.71-146.58,284.79l335.9,191.35c17.31,8.91,17.31,20.75,13.22,31.63-22.9,63.3-139.45,116.21-204.08,24.72-23.39-32.13-22.37-81.58-16.79-128.56l-61.07-33.61c-25.45,72.67-65.65,147.35-112.48,226.94,119.61,73.18,267.2,117.18,396.97,81.58,91.6-25.72,159.29-85.55,188.31-159.7,19.34-46.49,22.9-98.39,10.69-152.29l-10.69-4.94" inkscape:connector-curvature="0"/>
            </g>
          </g>
        </g>
      </g>
    </g>
    <g id="g254">
      <g>
        <rect class="st1" x="4758.07" y="239.09" width="3180.29" height="724.57"/>
        <g class="st5">
          <g id="g256">
            <g id="g262">
              <path id="path264" class="st0" d="M5548.42,757.75v-177.5l62.61-.99,23.41-53.9,5.08-12.86c-1.52,1.48-3.56,1.98-5.08,2.98-23.93,11.36-37.66,14.34-62.61,11.36-12.21-1.48-23.41-17.8-23.41-40.54v-101.85c-59.02,47.95-127.22,105.31-205.1,150.3-7.63,4.45-16.28,8.91-24.44,12.86l14.25,25.72c1.52,2.96,5.1,5.93,10.18,6.92h61.07l-.51,327.82c0,13.83,0,26.69-2.05,39.04,66.68-40.03,141.5-77.13,218.84-106.3v-73.18c-15.77,33.13-72.27,38.09-72.27-9.88" inkscape:connector-curvature="0"/>
            </g>
            <g id="g266">
              <path id="path268" class="st1" d="M5548.42,757.75v-177.5l62.61-.99,23.41-53.9,5.08-12.86c-1.52,1.48-3.56,1.98-5.08,2.98-23.93,11.36-37.66,14.34-62.61,11.36-12.21-1.48-23.41-17.8-23.41-40.54v-101.85c-59.02,47.95-127.22,105.31-205.1,150.3-7.63,4.45-16.28,8.91-24.44,12.86l14.25,25.72c1.52,2.96,5.1,5.93,10.18,6.92h61.07l-.51,327.82c0,13.83,0,26.69-2.05,39.04,66.68-40.03,141.5-77.13,218.84-106.3v-73.18c-15.77,33.13-72.27,38.09-72.27-9.88" inkscape:connector-curvature="0"/>
            </g>
            <g id="g270">
              <path id="path272" class="st0" d="M7840.13,240.08c-1.01,0-2.05-.99-2.53-.99h-.53v13.34h3.06c46.33,1.48,84.48,39.06,84.48,85.04s-38.15,83.08-84.48,84.56h-3.06v13.34h3.06c53.44-1.48,98.23-44.49,98.23-97.9s-44.79-96.91-98.23-97.39M7837.08,239.09c-29,0-54.97,12.35-73.3,31.65-16.77,16.81-27.46,40.54-27.46,66.74s10.69,49.45,27.46,66.25c18.32,19.3,44.3,31.65,73.3,31.65v-13.34c-30.53,0-57.51-15.33-73.3-38.09-8.63-13.83-14.23-29.66-14.23-46.47,0-17.8,5.61-33.13,14.23-46.98,15.79-22.74,42.76-38.07,73.3-38.07v-13.34" inkscape:connector-curvature="0"/>
            </g>
            <g id="g274">
              <path id="path276" class="st1" d="M7840.13,240.08c-1.01,0-2.05-.99-2.53-.99h-.53v13.34h3.06c46.33,1.48,84.48,39.06,84.48,85.04s-38.15,83.08-84.48,84.56h-3.06v13.34h3.06c53.44-1.48,98.23-44.49,98.23-97.9s-44.79-96.91-98.23-97.39M7837.08,239.09c-29,0-54.97,12.35-73.3,31.65-16.77,16.81-27.46,40.54-27.46,66.74s10.69,49.45,27.46,66.25c18.32,19.3,44.3,31.65,73.3,31.65v-13.34c-30.53,0-57.51-15.33-73.3-38.09-8.63-13.83-14.23-29.66-14.23-46.47,0-17.8,5.61-33.13,14.23-46.98,15.79-22.74,42.76-38.07,73.3-38.07v-13.34" inkscape:connector-curvature="0"/>
            </g>
            <g id="g278">
              <path id="path280" class="st0" d="M7879.31,375.55l-.49-18.79c0-14.34-6.64-16.81-12.23-19.28,6.62-3.46,14.76-8.91,14.76-23.73,0-21.77-17.8-27.7-34.1-27.7h-7.13v12.37h7.63c7.13,0,18.83.49,18.83,15.81s-10.67,17.8-20.88,17.8h-5.59v11.87h7.13c16.3,0,17.82,9.9,17.82,18.3,0,3.95,1.01,19.28,2.55,25.21h17.29v-1.98c-4.6-2.47-4.6-4.94-5.61-9.88M7840.13,286.05h-41.21v101.36h14.23v-43.51h26.97v-11.87h-26.97v-33.61h26.97v-12.37" inkscape:connector-curvature="0"/>
            </g>
            <g id="g282">
              <path id="path284" class="st1" d="M7879.31,375.55l-.49-18.79c0-14.34-6.64-16.81-12.23-19.28,6.62-3.46,14.76-8.91,14.76-23.73,0-21.77-17.8-27.7-34.1-27.7h-7.13v12.37h7.63c7.13,0,18.83.49,18.83,15.81s-10.67,17.8-20.88,17.8h-5.59v11.87h7.13c16.3,0,17.82,9.9,17.82,18.3,0,3.95,1.01,19.28,2.55,25.21h17.29v-1.98c-4.6-2.47-4.6-4.94-5.61-9.88M7840.13,286.05h-41.21v101.36h14.23v-43.51h26.97v-11.87h-26.97v-33.61h26.97v-12.37" inkscape:connector-curvature="0"/>
            </g>
            <g id="g286">
              <path id="path288" class="st0" d="M6744.4,696.92l65.67-133.98,25.94-53.9c-8.65-5.43-17.27-9.88-25.94-13.83-53.94-22.25-107.9-8.91-159.82,40.03l-7.11-40.03c-52.42,34.6-103.81,66.25-160.33,94.92-5.59,2.98-12.21,5.45-18.32,8.4l-5.08,11.38,3.06,31.65c7.63-2.49,14.76-2.98,20.35-2.98,13.75,1.48,21.38,10.87,21.38,32.13v237.35c0,13.83,0,26.69-2.55,39.04,67.69-40.03,142-77.13,219.88-106.3v-73.16c-15.79,33.11-72.29,38.07-72.29-9.9v-71.7c-.51-49.93,23.93-71.19,31.57-78.12,18.32-15.81,42.74-8.91,45.3,15.81,1.52,18.81-3.06,38.59-12.74,60.34l31.04,12.84" inkscape:connector-curvature="0"/>
            </g>
            <g id="g290">
              <path id="path292" class="st1" d="M6744.4,696.92l65.67-133.98,25.94-53.9c-8.65-5.43-17.27-9.88-25.94-13.83-53.94-22.25-107.9-8.91-159.82,40.03l-7.11-40.03c-52.42,34.6-103.81,66.25-160.33,94.92-5.59,2.98-12.21,5.45-18.32,8.4l-5.08,11.38,3.06,31.65c7.63-2.49,14.76-2.98,20.35-2.98,13.75,1.48,21.38,10.87,21.38,32.13v237.35c0,13.83,0,26.69-2.55,39.04,67.69-40.03,142-77.13,219.88-106.3v-73.16c-15.79,33.11-72.29,38.07-72.29-9.9v-71.7c-.51-49.93,23.93-71.19,31.57-78.12,18.32-15.81,42.74-8.91,45.3,15.81,1.52,18.81-3.06,38.59-12.74,60.34l31.04,12.84" inkscape:connector-curvature="0"/>
            </g>
            <g id="g294">
              <path id="path296" class="st0" d="M7763.29,579.25l.49-2.47,26.99-64.29c-10.16,4.96-18.83,8.91-26.99,11.87-12.7,3.97-24.4,4.96-40.17,2.49-12.23-1.5-22.92-17.82-23.93-40.56l1.01-101.85c-50.88,40.05-110.94,88.51-173.53,128.56-26.97,12.86-41.23,17.8-67.69,13.85-11.7-1.5-22.9-17.82-23.41-40.56v-101.85c-58.52,46.98-125.22,103.83-201.55,147.83-9.15,5.45-18.83,10.87-28.51,15.33l14.28,25.72c1.52,2.96,5.08,6.92,12.21,6.92h59.02v327.82c0,13.83-.51,26.69-2.02,39.04,66.15-40.03,141.48-77.13,218.32-106.3v-73.16c-14.74,33.11-71.74,38.07-71.23-9.9v-177.5h119.08v327.82c0,13.83-1.01,26.69-2.55,39.04,64.13-38.55,136.39-73.66,210.68-103.83,2.57-.99,5.63-1.48,8.16-2.47v-73.16c-1.52,3.95-5.08,8.4-8.16,11.87-21.34,22.23-63.09,19.76-63.09-21.77v-177.5l62.61-.99" inkscape:connector-curvature="0"/>
            </g>
            <g id="g298">
              <path id="path300" class="st1" d="M7763.29,579.25l.49-2.47,26.99-64.29c-10.16,4.96-18.83,8.91-26.99,11.87-12.7,3.97-24.4,4.96-40.17,2.49-12.23-1.5-22.92-17.82-23.93-40.56l1.01-101.85c-50.88,40.05-110.94,88.51-173.53,128.56-26.97,12.86-41.23,17.8-67.69,13.85-11.7-1.5-22.9-17.82-23.41-40.56v-101.85c-58.52,46.98-125.22,103.83-201.55,147.83-9.15,5.45-18.83,10.87-28.51,15.33l14.28,25.72c1.52,2.96,5.08,6.92,12.21,6.92h59.02v327.82c0,13.83-.51,26.69-2.02,39.04,66.15-40.03,141.48-77.13,218.32-106.3v-73.16c-14.74,33.11-71.74,38.07-71.23-9.9v-177.5h119.08v327.82c0,13.83-1.01,26.69-2.55,39.04,64.13-38.55,136.39-73.66,210.68-103.83,2.57-.99,5.63-1.48,8.16-2.47v-73.16c-1.52,3.95-5.08,8.4-8.16,11.87-21.34,22.23-63.09,19.76-63.09-21.77v-177.5l62.61-.99" inkscape:connector-curvature="0"/>
            </g>
            <g id="g302">
              <path id="path304" class="st0" d="M7214.15,750.33c-28,41.04-70.73,75.14-138.92,88.99-32.07,1.48-55.99-4.45-74.82-16.83v126.09h11.7c79.9,1.5,167.94-36.08,222.39-95.92,11.22-10.87,20.88-24.22,28.51-38.07l-28.51-37.56-20.35-26.71ZM7000.41,768.64v-82.59l76.86-26.69c-12.23-43.03-37.18-73.68-76.86-77.13v-100.88c5.59,0,10.67-.49,15.77-.49,105.35,0,189.81,73.66,218.32,171.56,2.55,9.4,5.1,17.78,6.64,26.2l-6.64,1.98-234.09,88.02ZM7000.41,822.5h0c-15.29-9.88-26.99-23.71-36.65-40.03l36.65-13.83v-82.59l-66.17,23.25c-28.49-52.4,3.58-126.09,61.07-127.06h5.1v-100.88c-87.53,6.44-155.73,58.84-190.34,129.55-17.31,33.61-25.98,72.19-26.99,110.74,0,38.57,9.68,74.66,26.99,106.81,35.62,67.73,106.36,116.19,190.34,120.13v-126.09" inkscape:connector-curvature="0"/>
            </g>
            <g id="g306">
              <path id="path308" class="st1" d="M7214.15,750.33c-28,41.04-70.73,75.14-138.92,88.99-32.07,1.48-55.99-4.45-74.82-16.83v126.09h11.7c79.9,1.5,167.94-36.08,222.39-95.92,11.22-10.87,20.88-24.22,28.51-38.07l-28.51-37.56-20.35-26.71ZM7000.41,768.64v-82.59l76.86-26.69c-12.23-43.03-37.18-73.68-76.86-77.13v-100.88c5.59,0,10.67-.49,15.77-.49,105.35,0,189.81,73.66,218.32,171.56,2.55,9.4,5.1,17.78,6.64,26.2l-6.64,1.98-234.09,88.02ZM7000.41,822.5h0c-15.29-9.88-26.99-23.71-36.65-40.03l36.65-13.83v-82.59l-66.17,23.25c-28.49-52.4,3.58-126.09,61.07-127.06h5.1v-100.88c-87.53,6.44-155.73,58.84-190.34,129.55-17.31,33.61-25.98,72.19-26.99,110.74,0,38.57,9.68,74.66,26.99,106.81,35.62,67.73,106.36,116.19,190.34,120.13v-126.09" inkscape:connector-curvature="0"/>
            </g>
          </g>
        </g>
      </g>
    </g>
    <g id="g310">
      <g>
        <rect class="st1" x="4758.07" y="1922.17" width="3180.29" height="724.55"/>
        <g class="st3">
          <g id="g312">
            <g id="g318">
              <path id="path320" class="st0" d="M6458.39,2284.59l1.01,8.4,5.1-11.38c-2.05,1.01-4.07,1.98-6.12,2.98" inkscape:connector-curvature="0"/>
            </g>
            <g id="g322">
              <path id="path324" class="st1" d="M6458.39,2284.59l1.01,8.4,5.1-11.38c-2.05,1.01-4.07,1.98-6.12,2.98" inkscape:connector-curvature="0"/>
            </g>
            <g id="g326">
              <path id="path328" class="st0" d="M6464.5,2281.62l18.32-37.56,24.44-51.94c-7.63-5.43-15.79-8.89-24.44-12.84-53.94-23.25-107.38-9.9-159.29,39.04l-7.13-40.03c-58.01,38.55-116.02,73.18-179.14,103.81-1.54.99-4.07,1.98-5.61,2.49l4.07,40.05h1.54c23.93-6.92,39.69-1.5,40.21,29.16v237.35c0,13.83,0,26.69-2.05,39.04,66.15-40.03,141.48-77.13,218.84-106.3v-73.16c-15.79,33.11-71.76,38.07-71.76-9.9v-71.7c-.51-49.93,23.91-71.19,31.04-78.12,18.32-15.81,43.25-8.91,45.3,15.81,1.52,18.81-3.06,38.59-13.24,60.34l31.55,12.84,42.26-87.01-1.03-8.4c2.05-.99,4.07-1.98,6.12-2.98" inkscape:connector-curvature="0"/>
            </g>
            <g id="g330">
              <path id="path332" class="st1" d="M6464.5,2281.62l18.32-37.56,24.44-51.94c-7.63-5.43-15.79-8.89-24.44-12.84-53.94-23.25-107.38-9.9-159.29,39.04l-7.13-40.03c-58.01,38.55-116.02,73.18-179.14,103.81-1.54.99-4.07,1.98-5.61,2.49l4.07,40.05h1.54c23.93-6.92,39.69-1.5,40.21,29.16v237.35c0,13.83,0,26.69-2.05,39.04,66.15-40.03,141.48-77.13,218.84-106.3v-73.16c-15.79,33.11-71.76,38.07-71.76-9.9v-71.7c-.51-49.93,23.91-71.19,31.04-78.12,18.32-15.81,43.25-8.91,45.3,15.81,1.52,18.81-3.06,38.59-13.24,60.34l31.55,12.84,42.26-87.01-1.03-8.4c2.05-.99,4.07-1.98,6.12-2.98" inkscape:connector-curvature="0"/>
            </g>
            <g id="g334">
              <path id="path336" class="st0" d="M6072.11,2447.27v-183.45c0-28.17,22.39-35.6,42.74-28.17,5.61-10.39,13.75-20.27,22.39-30.17,2.55-1.48,4.09-3.95,6.12-6.42-2.02-.51-3.56-1.98-6.12-2.98-61.58-32.13-120.62-29.18-166.91,12.35-38.69-22.74-78.38-35.09-116.55-38.55v106.79c3.04-.49,5.59-.49,7.63-.49,33.57-2.47,60.54,14.82,63.6,56.35v129.06c-4.05,39.55-28.51,60.3-66.68,54.87-1.52,0-3.04,0-4.56-.99v101.36l70.22-41.53-.51,53.4c66.15-40.05,135.36-75.65,212.22-104.83v-66.74c-12.72,33.13-63.62,32.13-63.62-9.88M5853.79,2169.89h0c-105.35-8.4-196.47,56.86-219.37,164.15-3.54,15.81-5.08,33.63-5.59,51.43,0,26.69,1.52,52.4,5.59,75.14,14.76,89.5,60.58,148.83,148.12,170.57,18.81,5.45,37.64,2.98,55.97-5.43l15.29-8.42v-101.85c-51.41-9.4-69.74-63.28-70.75-120.13-1.54-67.73,21.36-111.26,70.75-118.17v-107.3" inkscape:connector-curvature="0"/>
            </g>
            <g id="g338">
              <path id="path340" class="st1" d="M6072.11,2447.27v-183.45c0-28.17,22.39-35.6,42.74-28.17,5.61-10.39,13.75-20.27,22.39-30.17,2.55-1.48,4.09-3.95,6.12-6.42-2.02-.51-3.56-1.98-6.12-2.98-61.58-32.13-120.62-29.18-166.91,12.35-38.69-22.74-78.38-35.09-116.55-38.55v106.79c3.04-.49,5.59-.49,7.63-.49,33.57-2.47,60.54,14.82,63.6,56.35v129.06c-4.05,39.55-28.51,60.3-66.68,54.87-1.52,0-3.04,0-4.56-.99v101.36l70.22-41.53-.51,53.4c66.15-40.05,135.36-75.65,212.22-104.83v-66.74c-12.72,33.13-63.62,32.13-63.62-9.88M5853.79,2169.89h0c-105.35-8.4-196.47,56.86-219.37,164.15-3.54,15.81-5.08,33.63-5.59,51.43,0,26.69,1.52,52.4,5.59,75.14,14.76,89.5,60.58,148.83,148.12,170.57,18.81,5.45,37.64,2.98,55.97-5.43l15.29-8.42v-101.85c-51.41-9.4-69.74-63.28-70.75-120.13-1.54-67.73,21.36-111.26,70.75-118.17v-107.3" inkscape:connector-curvature="0"/>
            </g>
            <g id="g342">
              <path id="path344" class="st0" d="M5343.33,2317.23l-351.67-197.79c-12.74-57.34,65.14-118.66,157.78-88.99,69.72,23.25,81.42,74.17,62.59,154.76l65.14,37.07c17.31-59.33,40.21-116.19,66.17-171.54,8.65-16.83,16.79-33.15,25.45-49.95-7.65-4.94-16.81-9.4-25.45-13.34-128.76-66.25-271.77-87.03-393.41-32.13-120.62,59.33-167.43,157.71-146.58,284.79l335.9,191.35c17.31,8.91,17.31,20.75,13.22,31.63-22.9,63.3-139.45,116.21-204.08,24.72-23.39-32.13-22.37-81.58-16.79-128.56l-61.07-33.61c-25.45,72.67-65.65,147.35-112.48,226.94,119.61,73.18,267.2,117.18,396.97,81.58,91.6-25.72,159.29-85.55,188.31-159.7,19.34-46.49,22.9-98.39,10.69-152.29l-10.69-4.94" inkscape:connector-curvature="0"/>
            </g>
            <g id="g346">
              <path id="path348" class="st1" d="M5343.33,2317.23l-351.67-197.79c-12.74-57.34,65.14-118.66,157.78-88.99,69.72,23.25,81.42,74.17,62.59,154.76l65.14,37.07c17.31-59.33,40.21-116.19,66.17-171.54,8.65-16.83,16.79-33.15,25.45-49.95-7.65-4.94-16.81-9.4-25.45-13.34-128.76-66.25-271.77-87.03-393.41-32.13-120.62,59.33-167.43,157.71-146.58,284.79l335.9,191.35c17.31,8.91,17.31,20.75,13.22,31.63-22.9,63.3-139.45,116.21-204.08,24.72-23.39-32.13-22.37-81.58-16.79-128.56l-61.07-33.61c-25.45,72.67-65.65,147.35-112.48,226.94,119.61,73.18,267.2,117.18,396.97,81.58,91.6-25.72,159.29-85.55,188.31-159.7,19.34-46.49,22.9-98.39,10.69-152.29l-10.69-4.94" inkscape:connector-curvature="0"/>
            </g>
            <g id="g350">
              <path id="path352" class="st0" d="M5548.42,2440.84v-177.5l62.61-.99,23.41-53.9,5.08-12.86c-1.52,1.48-3.56,1.98-5.08,2.98-23.93,11.36-37.66,14.34-62.61,11.36-12.21-1.48-23.41-17.8-23.41-40.54v-101.85c-59.02,47.95-127.22,105.31-205.1,150.3-7.63,4.45-16.28,8.91-24.44,12.86l14.25,25.72c1.52,2.96,5.1,5.93,10.18,6.92h61.07l-.51,327.82c0,13.83,0,26.69-2.05,39.04,66.68-40.03,141.5-77.13,218.84-106.3v-73.18c-15.77,33.13-72.27,38.09-72.27-9.88" inkscape:connector-curvature="0"/>
            </g>
            <g id="g354">
              <path id="path356" class="st1" d="M5548.42,2440.84v-177.5l62.61-.99,23.41-53.9,5.08-12.86c-1.52,1.48-3.56,1.98-5.08,2.98-23.93,11.36-37.66,14.34-62.61,11.36-12.21-1.48-23.41-17.8-23.41-40.54v-101.85c-59.02,47.95-127.22,105.31-205.1,150.3-7.63,4.45-16.28,8.91-24.44,12.86l14.25,25.72c1.52,2.96,5.1,5.93,10.18,6.92h61.07l-.51,327.82c0,13.83,0,26.69-2.05,39.04,66.68-40.03,141.5-77.13,218.84-106.3v-73.18c-15.77,33.13-72.27,38.09-72.27-9.88" inkscape:connector-curvature="0"/>
            </g>
            <g id="g358">
              <path id="path360" class="st0" d="M7840.13,1923.17c-1.01,0-2.05-.99-2.53-.99h-.53v13.34h3.06c46.33,1.48,84.48,39.06,84.48,85.04s-38.15,83.08-84.48,84.56h-3.06v13.34h3.06c53.44-1.48,98.23-44.49,98.23-97.9s-44.79-96.91-98.23-97.39M7837.08,1922.17c-29,0-54.97,12.35-73.3,31.65-16.77,16.81-27.46,40.54-27.46,66.74s10.69,49.45,27.46,66.25c18.32,19.3,44.3,31.65,73.3,31.65v-13.34c-30.53,0-57.51-15.33-73.3-38.09-8.63-13.83-14.23-29.66-14.23-46.47,0-17.8,5.61-33.13,14.23-46.98,15.79-22.74,42.76-38.07,73.3-38.07v-13.34" inkscape:connector-curvature="0"/>
            </g>
            <g id="g362">
              <path id="path364" class="st1" d="M7840.13,1923.17c-1.01,0-2.05-.99-2.53-.99h-.53v13.34h3.06c46.33,1.48,84.48,39.06,84.48,85.04s-38.15,83.08-84.48,84.56h-3.06v13.34h3.06c53.44-1.48,98.23-44.49,98.23-97.9s-44.79-96.91-98.23-97.39M7837.08,1922.17c-29,0-54.97,12.35-73.3,31.65-16.77,16.81-27.46,40.54-27.46,66.74s10.69,49.45,27.46,66.25c18.32,19.3,44.3,31.65,73.3,31.65v-13.34c-30.53,0-57.51-15.33-73.3-38.09-8.63-13.83-14.23-29.66-14.23-46.47,0-17.8,5.61-33.13,14.23-46.98,15.79-22.74,42.76-38.07,73.3-38.07v-13.34" inkscape:connector-curvature="0"/>
            </g>
            <g id="g366">
              <path id="path368" class="st0" d="M7879.31,2058.64l-.49-18.79c0-14.34-6.64-16.81-12.23-19.28,6.62-3.46,14.76-8.91,14.76-23.73,0-21.77-17.8-27.7-34.1-27.7h-7.13v12.37h7.63c7.13,0,18.83.49,18.83,15.81s-10.67,17.8-20.88,17.8h-5.59v11.87h7.13c16.3,0,17.82,9.9,17.82,18.3,0,3.95,1.01,19.28,2.55,25.21h17.29v-1.98c-4.6-2.47-4.6-4.94-5.61-9.88M7840.13,1969.14h-41.21v101.36h14.23v-43.51h26.97v-11.87h-26.97v-33.61h26.97v-12.37" inkscape:connector-curvature="0"/>
            </g>
            <g id="g370">
              <path id="path372" class="st1" d="M7879.31,2058.64l-.49-18.79c0-14.34-6.64-16.81-12.23-19.28,6.62-3.46,14.76-8.91,14.76-23.73,0-21.77-17.8-27.7-34.1-27.7h-7.13v12.37h7.63c7.13,0,18.83.49,18.83,15.81s-10.67,17.8-20.88,17.8h-5.59v11.87h7.13c16.3,0,17.82,9.9,17.82,18.3,0,3.95,1.01,19.28,2.55,25.21h17.29v-1.98c-4.6-2.47-4.6-4.94-5.61-9.88M7840.13,1969.14h-41.21v101.36h14.23v-43.51h26.97v-11.87h-26.97v-33.61h26.97v-12.37" inkscape:connector-curvature="0"/>
            </g>
            <g id="g374">
              <path id="path376" class="st0" d="M6744.4,2380.01l65.67-133.98,25.94-53.9c-8.65-5.43-17.27-9.88-25.94-13.83-53.94-22.25-107.9-8.91-159.82,40.03l-7.11-40.03c-52.42,34.6-103.81,66.25-160.33,94.92-5.59,2.98-12.21,5.45-18.32,8.4l-5.08,11.38,3.06,31.65c7.63-2.49,14.76-2.98,20.35-2.98,13.75,1.48,21.38,10.87,21.38,32.13v237.35c0,13.83,0,26.69-2.55,39.04,67.69-40.03,142-77.13,219.88-106.3v-73.16c-15.79,33.11-72.29,38.07-72.29-9.9v-71.7c-.51-49.93,23.93-71.19,31.57-78.12,18.32-15.81,42.74-8.91,45.3,15.81,1.52,18.81-3.06,38.59-12.74,60.34l31.04,12.84" inkscape:connector-curvature="0"/>
            </g>
            <g id="g378">
              <path id="path380" class="st1" d="M6744.4,2380.01l65.67-133.98,25.94-53.9c-8.65-5.43-17.27-9.88-25.94-13.83-53.94-22.25-107.9-8.91-159.82,40.03l-7.11-40.03c-52.42,34.6-103.81,66.25-160.33,94.92-5.59,2.98-12.21,5.45-18.32,8.4l-5.08,11.38,3.06,31.65c7.63-2.49,14.76-2.98,20.35-2.98,13.75,1.48,21.38,10.87,21.38,32.13v237.35c0,13.83,0,26.69-2.55,39.04,67.69-40.03,142-77.13,219.88-106.3v-73.16c-15.79,33.11-72.29,38.07-72.29-9.9v-71.7c-.51-49.93,23.93-71.19,31.57-78.12,18.32-15.81,42.74-8.91,45.3,15.81,1.52,18.81-3.06,38.59-12.74,60.34l31.04,12.84" inkscape:connector-curvature="0"/>
            </g>
            <g id="g382">
              <path id="path384" class="st0" d="M7763.29,2262.34l.49-2.47,26.99-64.29c-10.16,4.96-18.83,8.91-26.99,11.87-12.7,3.97-24.4,4.96-40.17,2.49-12.23-1.5-22.92-17.82-23.93-40.56l1.01-101.85c-50.88,40.05-110.94,88.51-173.53,128.56-26.97,12.86-41.23,17.8-67.69,13.85-11.7-1.5-22.9-17.82-23.41-40.56v-101.85c-58.52,46.98-125.22,103.83-201.55,147.83-9.15,5.45-18.83,10.87-28.51,15.33l14.28,25.72c1.52,2.96,5.08,6.92,12.21,6.92h59.02v327.82c0,13.83-.51,26.69-2.02,39.04,66.15-40.03,141.48-77.13,218.32-106.3v-73.16c-14.74,33.11-71.74,38.07-71.23-9.9v-177.5h119.08v327.82c0,13.83-1.01,26.69-2.55,39.04,64.13-38.55,136.39-73.66,210.68-103.83,2.57-.99,5.63-1.48,8.16-2.47v-73.16c-1.52,3.95-5.08,8.4-8.16,11.87-21.34,22.23-63.09,19.76-63.09-21.77v-177.5l62.61-.99" inkscape:connector-curvature="0"/>
            </g>
            <g id="g386">
              <path id="path388" class="st1" d="M7763.29,2262.34l.49-2.47,26.99-64.29c-10.16,4.96-18.83,8.91-26.99,11.87-12.7,3.97-24.4,4.96-40.17,2.49-12.23-1.5-22.92-17.82-23.93-40.56l1.01-101.85c-50.88,40.05-110.94,88.51-173.53,128.56-26.97,12.86-41.23,17.8-67.69,13.85-11.7-1.5-22.9-17.82-23.41-40.56v-101.85c-58.52,46.98-125.22,103.83-201.55,147.83-9.15,5.45-18.83,10.87-28.51,15.33l14.28,25.72c1.52,2.96,5.08,6.92,12.21,6.92h59.02v327.82c0,13.83-.51,26.69-2.02,39.04,66.15-40.03,141.48-77.13,218.32-106.3v-73.16c-14.74,33.11-71.74,38.07-71.23-9.9v-177.5h119.08v327.82c0,13.83-1.01,26.69-2.55,39.04,64.13-38.55,136.39-73.66,210.68-103.83,2.57-.99,5.63-1.48,8.16-2.47v-73.16c-1.52,3.95-5.08,8.4-8.16,11.87-21.34,22.23-63.09,19.76-63.09-21.77v-177.5l62.61-.99" inkscape:connector-curvature="0"/>
            </g>
            <g id="g390">
              <path id="path392" class="st0" d="M7214.15,2433.42c-28,41.04-70.73,75.14-138.92,88.99-32.07,1.48-55.99-4.45-74.82-16.83v126.09h11.7c79.9,1.5,167.94-36.08,222.39-95.92,11.22-10.87,20.88-24.22,28.51-38.07l-28.51-37.56-20.35-26.71ZM7000.41,2451.73v-82.59l76.86-26.69c-12.23-43.03-37.18-73.68-76.86-77.13v-100.88c5.59,0,10.67-.49,15.77-.49,105.35,0,189.81,73.66,218.32,171.56,2.55,9.4,5.1,17.78,6.64,26.2l-6.64,1.98-234.09,88.02ZM7000.41,2505.59h0c-15.29-9.88-26.99-23.71-36.65-40.03l36.65-13.83v-82.59l-66.17,23.25c-28.49-52.4,3.58-126.09,61.07-127.06h5.1v-100.88c-87.53,6.44-155.73,58.84-190.34,129.55-17.31,33.61-25.98,72.19-26.99,110.74,0,38.57,9.68,74.66,26.99,106.81,35.62,67.73,106.36,116.19,190.34,120.13v-126.09" inkscape:connector-curvature="0"/>
            </g>
            <g id="g394">
              <path id="path396" class="st1" d="M7214.15,2433.42c-28,41.04-70.73,75.14-138.92,88.99-32.07,1.48-55.99-4.45-74.82-16.83v126.09h11.7c79.9,1.5,167.94-36.08,222.39-95.92,11.22-10.87,20.88-24.22,28.51-38.07l-28.51-37.56-20.35-26.71ZM7000.41,2451.73v-82.59l76.86-26.69c-12.23-43.03-37.18-73.68-76.86-77.13v-100.88c5.59,0,10.67-.49,15.77-.49,105.35,0,189.81,73.66,218.32,171.56,2.55,9.4,5.1,17.78,6.64,26.2l-6.64,1.98-234.09,88.02ZM7000.41,2505.59h0c-15.29-9.88-26.99-23.71-36.65-40.03l36.65-13.83v-82.59l-66.17,23.25c-28.49-52.4,3.58-126.09,61.07-127.06h5.1v-100.88c-87.53,6.44-155.73,58.84-190.34,129.55-17.31,33.61-25.98,72.19-26.99,110.74,0,38.57,9.68,74.66,26.99,106.81,35.62,67.73,106.36,116.19,190.34,120.13v-126.09" inkscape:connector-curvature="0"/>
            </g>
          </g>
        </g>
      </g>
    </g>
    <g id="g422">
      <g>
        <rect class="st1" x="492.51" y="1693.62" width="3110.98" height="708.76"/>
        <g class="st4">
          <g id="g424">
            <g id="g430">
              <path id="path432" class="st0" d="M2155.77,2048.13l.99,8.22,4.99-11.13c-2,.99-3.98,1.94-5.98,2.91" inkscape:connector-curvature="0"/>
            </g>
            <g id="g434">
              <path id="path436" class="st1" d="M2155.77,2048.13l.99,8.22,4.99-11.13c-2,.99-3.98,1.94-5.98,2.91" inkscape:connector-curvature="0"/>
            </g>
            <g id="g438">
              <path id="path440" class="st0" d="M2161.75,2045.23l17.93-36.74,23.91-50.81c-7.47-5.31-15.45-8.7-23.91-12.56-52.77-22.74-105.04-9.69-155.82,38.19l-6.97-39.16c-56.75,37.71-113.49,71.58-175.23,101.55-1.51.97-3.98,1.94-5.49,2.44l3.98,39.18h1.51c23.41-6.77,38.82-1.47,39.34,28.52v232.18c0,13.53,0,26.11-2,38.19,64.71-39.16,138.39-75.45,214.07-103.99v-71.56c-15.45,32.38-70.2,37.24-70.2-9.69v-70.14c-.5-48.84,23.39-69.64,30.36-76.42,17.93-15.47,42.31-8.72,44.31,15.47,1.49,18.4-2.99,37.75-12.95,59.03l30.86,12.56,41.34-85.11-1.01-8.22c2-.97,3.98-1.94,5.98-2.91" inkscape:connector-curvature="0"/>
            </g>
            <g id="g442">
              <path id="path444" class="st1" d="M2161.75,2045.23l17.93-36.74,23.91-50.81c-7.47-5.31-15.45-8.7-23.91-12.56-52.77-22.74-105.04-9.69-155.82,38.19l-6.97-39.16c-56.75,37.71-113.49,71.58-175.23,101.55-1.51.97-3.98,1.94-5.49,2.44l3.98,39.18h1.51c23.41-6.77,38.82-1.47,39.34,28.52v232.18c0,13.53,0,26.11-2,38.19,64.71-39.16,138.39-75.45,214.07-103.99v-71.56c-15.45,32.38-70.2,37.24-70.2-9.69v-70.14c-.5-48.84,23.39-69.64,30.36-76.42,17.93-15.47,42.31-8.72,44.31,15.47,1.49,18.4-2.99,37.75-12.95,59.03l30.86,12.56,41.34-85.11-1.01-8.22c2-.97,3.98-1.94,5.98-2.91" inkscape:connector-curvature="0"/>
            </g>
            <g id="g446">
              <path id="path448" class="st0" d="M1777.92,2207.27v-179.45c0-27.55,21.91-34.82,41.81-27.55,5.49-10.16,13.45-19.83,21.91-29.51,2.5-1.45,4-3.86,5.98-6.28-1.98-.5-3.49-1.94-5.98-2.91-60.23-31.43-117.99-28.54-163.27,12.08-37.85-22.24-76.67-34.33-114.01-37.71v104.46c2.97-.48,5.47-.48,7.47-.48,32.84-2.42,59.22,14.5,62.21,55.12v126.25c-3.96,38.68-27.89,58.99-65.22,53.68-1.49,0-2.97,0-4.46-.97v99.15l68.69-40.62-.5,52.23c64.71-39.18,132.41-74,207.6-102.54v-65.28c-12.44,32.4-62.23,31.43-62.23-9.67M1564.36,1935.93h0c-103.06-8.22-192.19,55.62-214.59,160.58-3.47,15.47-4.97,32.9-5.47,50.31,0,26.11,1.49,51.26,5.47,73.5,14.44,87.55,59.26,145.58,144.89,166.85,18.4,5.33,36.82,2.91,54.75-5.31l14.95-8.24v-99.63c-50.29-9.19-68.22-61.9-69.21-117.52-1.51-66.25,20.9-108.84,69.21-115.59v-104.96" inkscape:connector-curvature="0"/>
            </g>
            <g id="g450">
              <path id="path452" class="st1" d="M1777.92,2207.27v-179.45c0-27.55,21.91-34.82,41.81-27.55,5.49-10.16,13.45-19.83,21.91-29.51,2.5-1.45,4-3.86,5.98-6.28-1.98-.5-3.49-1.94-5.98-2.91-60.23-31.43-117.99-28.54-163.27,12.08-37.85-22.24-76.67-34.33-114.01-37.71v104.46c2.97-.48,5.47-.48,7.47-.48,32.84-2.42,59.22,14.5,62.21,55.12v126.25c-3.96,38.68-27.89,58.99-65.22,53.68-1.49,0-2.97,0-4.46-.97v99.15l68.69-40.62-.5,52.23c64.71-39.18,132.41-74,207.6-102.54v-65.28c-12.44,32.4-62.23,31.43-62.23-9.67M1564.36,1935.93h0c-103.06-8.22-192.19,55.62-214.59,160.58-3.47,15.47-4.97,32.9-5.47,50.31,0,26.11,1.49,51.26,5.47,73.5,14.44,87.55,59.26,145.58,144.89,166.85,18.4,5.33,36.82,2.91,54.75-5.31l14.95-8.24v-99.63c-50.29-9.19-68.22-61.9-69.21-117.52-1.51-66.25,20.9-108.84,69.21-115.59v-104.96" inkscape:connector-curvature="0"/>
            </g>
            <g id="g454">
              <path id="path456" class="st0" d="M1065.02,2080.06l-344.01-193.48c-12.46-56.09,63.72-116.07,154.34-87.05,68.2,22.74,79.64,72.55,61.22,151.39l63.72,36.27c16.94-58.03,39.34-113.65,64.73-167.81,8.46-16.46,16.42-32.42,24.9-48.86-7.49-4.83-16.44-9.19-24.9-13.05-125.95-64.81-265.85-85.13-384.83-31.43-117.99,58.03-163.78,154.28-143.38,278.59l328.58,187.18c16.94,8.72,16.94,20.3,12.93,30.94-22.4,61.92-136.41,113.67-199.64,24.18-22.88-31.43-21.89-79.8-16.42-125.76l-59.74-32.88c-24.9,71.09-64.21,144.14-110.03,222,117,71.58,261.37,114.62,388.32,79.8,89.61-25.15,155.82-83.68,184.21-156.22,18.92-45.48,22.4-96.24,10.46-148.97l-10.46-4.83" inkscape:connector-curvature="0"/>
            </g>
            <g id="g458">
              <path id="path460" class="st1" d="M1065.02,2080.06l-344.01-193.48c-12.46-56.09,63.72-116.07,154.34-87.05,68.2,22.74,79.64,72.55,61.22,151.39l63.72,36.27c16.94-58.03,39.34-113.65,64.73-167.81,8.46-16.46,16.42-32.42,24.9-48.86-7.49-4.83-16.44-9.19-24.9-13.05-125.95-64.81-265.85-85.13-384.83-31.43-117.99,58.03-163.78,154.28-143.38,278.59l328.58,187.18c16.94,8.72,16.94,20.3,12.93,30.94-22.4,61.92-136.41,113.67-199.64,24.18-22.88-31.43-21.89-79.8-16.42-125.76l-59.74-32.88c-24.9,71.09-64.21,144.14-110.03,222,117,71.58,261.37,114.62,388.32,79.8,89.61-25.15,155.82-83.68,184.21-156.22,18.92-45.48,22.4-96.24,10.46-148.97l-10.46-4.83" inkscape:connector-curvature="0"/>
            </g>
            <g id="g462">
              <path id="path464" class="st0" d="M1265.64,2200.98v-173.63l61.24-.97,22.9-52.73,4.97-12.58c-1.49,1.45-3.49,1.94-4.97,2.91-23.41,11.11-36.84,14.02-61.24,11.11-11.94-1.45-22.9-17.41-22.9-39.65v-99.63c-57.74,46.9-124.45,103.02-200.63,147.03-7.47,4.36-15.92,8.72-23.91,12.58l13.94,25.15c1.49,2.89,4.99,5.8,9.96,6.77h59.74l-.5,320.68c0,13.53,0,26.11-2,38.19,65.22-39.16,138.41-75.45,214.07-103.99v-71.58c-15.43,32.4-70.69,37.26-70.69-9.67" inkscape:connector-curvature="0"/>
            </g>
            <g id="g466">
              <path id="path468" class="st1" d="M1265.64,2200.98v-173.63l61.24-.97,22.9-52.73,4.97-12.58c-1.49,1.45-3.49,1.94-4.97,2.91-23.41,11.11-36.84,14.02-61.24,11.11-11.94-1.45-22.9-17.41-22.9-39.65v-99.63c-57.74,46.9-124.45,103.02-200.63,147.03-7.47,4.36-15.92,8.72-23.91,12.58l13.94,25.15c1.49,2.89,4.99,5.8,9.96,6.77h59.74l-.5,320.68c0,13.53,0,26.11-2,38.19,65.22-39.16,138.41-75.45,214.07-103.99v-71.58c-15.43,32.4-70.69,37.26-70.69-9.67" inkscape:connector-curvature="0"/>
            </g>
            <g id="g470">
              <path id="path472" class="st0" d="M3507.4,1694.59c-.99,0-2-.97-2.48-.97h-.51v13.05h2.99c45.32,1.45,82.64,38.21,82.64,83.19s-37.32,81.27-82.64,82.71h-2.99v13.05h2.99c52.27-1.45,96.08-43.52,96.08-95.77s-43.81-94.8-96.08-95.27M3504.41,1693.62c-28.36,0-53.78,12.08-71.7,30.96-16.4,16.44-26.86,39.65-26.86,65.28s10.46,48.37,26.86,64.81c17.93,18.88,43.34,30.96,71.7,30.96v-13.05c-29.87,0-56.25-14.99-71.7-37.26-8.44-13.53-13.92-29.02-13.92-45.46,0-17.41,5.49-32.4,13.92-45.95,15.45-22.24,41.83-37.24,71.7-37.24v-13.05" inkscape:connector-curvature="0"/>
            </g>
            <g id="g474">
              <path id="path476" class="st1" d="M3507.4,1694.59c-.99,0-2-.97-2.48-.97h-.51v13.05h2.99c45.32,1.45,82.64,38.21,82.64,83.19s-37.32,81.27-82.64,82.71h-2.99v13.05h2.99c52.27-1.45,96.08-43.52,96.08-95.77s-43.81-94.8-96.08-95.27M3504.41,1693.62c-28.36,0-53.78,12.08-71.7,30.96-16.4,16.44-26.86,39.65-26.86,65.28s10.46,48.37,26.86,64.81c17.93,18.88,43.34,30.96,71.7,30.96v-13.05c-29.87,0-56.25-14.99-71.7-37.26-8.44-13.53-13.92-29.02-13.92-45.46,0-17.41,5.49-32.4,13.92-45.95,15.45-22.24,41.83-37.24,71.7-37.24v-13.05" inkscape:connector-curvature="0"/>
            </g>
            <g id="g478">
              <path id="path480" class="st0" d="M3545.73,1827.1l-.48-18.38c0-14.02-6.5-16.44-11.96-18.86,6.48-3.39,14.44-8.72,14.44-23.21,0-21.29-17.41-27.1-33.36-27.1h-6.97v12.1h7.47c6.97,0,18.42.48,18.42,15.47s-10.44,17.41-20.42,17.41h-5.47v11.61h6.97c15.94,0,17.43,9.69,17.43,17.91,0,3.86.99,18.86,2.5,24.66h16.92v-1.94c-4.5-2.42-4.5-4.83-5.49-9.67M3507.4,1739.56h-40.31v99.15h13.92v-42.57h26.38v-11.61h-26.38v-32.88h26.38v-12.1" inkscape:connector-curvature="0"/>
            </g>
            <g id="g482">
              <path id="path484" class="st1" d="M3545.73,1827.1l-.48-18.38c0-14.02-6.5-16.44-11.96-18.86,6.48-3.39,14.44-8.72,14.44-23.21,0-21.29-17.41-27.1-33.36-27.1h-6.97v12.1h7.47c6.97,0,18.42.48,18.42,15.47s-10.44,17.41-20.42,17.41h-5.47v11.61h6.97c15.94,0,17.43,9.69,17.43,17.91,0,3.86.99,18.86,2.5,24.66h16.92v-1.94c-4.5-2.42-4.5-4.83-5.49-9.67M3507.4,1739.56h-40.31v99.15h13.92v-42.57h26.38v-11.61h-26.38v-32.88h26.38v-12.1" inkscape:connector-curvature="0"/>
            </g>
            <g id="g486">
              <path id="path488" class="st0" d="M2435.55,2141.47l64.23-131.06,25.37-52.73c-8.46-5.31-16.9-9.67-25.37-13.53-52.77-21.77-105.55-8.72-156.34,39.16l-6.95-39.16c-51.28,33.85-101.55,64.81-156.83,92.86-5.47,2.91-11.94,5.33-17.93,8.22l-4.97,11.13,2.99,30.96c7.47-2.44,14.44-2.91,19.91-2.91,13.45,1.45,20.92,10.64,20.92,31.43v232.18c0,13.53,0,26.11-2.5,38.19,66.22-39.16,138.91-75.45,215.08-103.99v-71.56c-15.45,32.38-70.71,37.24-70.71-9.69v-70.14c-.5-48.84,23.41-69.64,30.88-76.42,17.93-15.47,41.81-8.72,44.31,15.47,1.49,18.4-2.99,37.75-12.46,59.03l30.36,12.56" inkscape:connector-curvature="0"/>
            </g>
            <g id="g490">
              <path id="path492" class="st1" d="M2435.55,2141.47l64.23-131.06,25.37-52.73c-8.46-5.31-16.9-9.67-25.37-13.53-52.77-21.77-105.55-8.72-156.34,39.16l-6.95-39.16c-51.28,33.85-101.55,64.81-156.83,92.86-5.47,2.91-11.94,5.33-17.93,8.22l-4.97,11.13,2.99,30.96c7.47-2.44,14.44-2.91,19.91-2.91,13.45,1.45,20.92,10.64,20.92,31.43v232.18c0,13.53,0,26.11-2.5,38.19,66.22-39.16,138.91-75.45,215.08-103.99v-71.56c-15.45,32.38-70.71,37.24-70.71-9.69v-70.14c-.5-48.84,23.41-69.64,30.88-76.42,17.93-15.47,41.81-8.72,44.31,15.47,1.49,18.4-2.99,37.75-12.46,59.03l30.36,12.56" inkscape:connector-curvature="0"/>
            </g>
            <g id="g494">
              <path id="path496" class="st0" d="M3432.23,2026.37l.48-2.42,26.4-62.89c-9.94,4.85-18.42,8.72-26.4,11.61-12.42,3.88-23.87,4.85-39.3,2.44-11.96-1.47-22.42-17.43-23.41-39.67l.99-99.63c-49.78,39.18-108.52,86.58-169.75,125.76-26.38,12.58-40.33,17.41-66.22,13.55-11.45-1.47-22.4-17.43-22.9-39.67v-99.63c-57.24,45.95-122.49,101.57-197.16,144.61-8.95,5.33-18.42,10.64-27.89,14.99l13.96,25.15c1.49,2.89,4.97,6.77,11.94,6.77h57.74v320.68c0,13.53-.5,26.11-1.98,38.19,64.71-39.16,138.39-75.45,213.56-103.99v-71.56c-14.42,32.38-70.18,37.24-69.68-9.69v-173.63h116.49v320.68c0,13.53-.99,26.11-2.5,38.19,62.73-37.71,133.42-72.06,206.09-101.57,2.52-.97,5.51-1.45,7.98-2.42v-71.56c-1.49,3.86-4.97,8.22-7.98,11.61-20.88,21.75-61.72,19.33-61.72-21.29v-173.63l61.24-.97" inkscape:connector-curvature="0"/>
            </g>
            <g id="g498">
              <path id="path500" class="st1" d="M3432.23,2026.37l.48-2.42,26.4-62.89c-9.94,4.85-18.42,8.72-26.4,11.61-12.42,3.88-23.87,4.85-39.3,2.44-11.96-1.47-22.42-17.43-23.41-39.67l.99-99.63c-49.78,39.18-108.52,86.58-169.75,125.76-26.38,12.58-40.33,17.41-66.22,13.55-11.45-1.47-22.4-17.43-22.9-39.67v-99.63c-57.24,45.95-122.49,101.57-197.16,144.61-8.95,5.33-18.42,10.64-27.89,14.99l13.96,25.15c1.49,2.89,4.97,6.77,11.94,6.77h57.74v320.68c0,13.53-.5,26.11-1.98,38.19,64.71-39.16,138.39-75.45,213.56-103.99v-71.56c-14.42,32.38-70.18,37.24-69.68-9.69v-173.63h116.49v320.68c0,13.53-.99,26.11-2.5,38.19,62.73-37.71,133.42-72.06,206.09-101.57,2.52-.97,5.51-1.45,7.98-2.42v-71.56c-1.49,3.86-4.97,8.22-7.98,11.61-20.88,21.75-61.72,19.33-61.72-21.29v-173.63l61.24-.97" inkscape:connector-curvature="0"/>
            </g>
            <g id="g502">
              <path id="path504" class="st0" d="M2895.06,2193.72c-27.39,40.15-69.19,73.5-135.9,87.05-31.37,1.45-54.77-4.36-73.19-16.46v123.34h11.45c78.16,1.47,164.28-35.3,217.54-93.83,10.97-10.64,20.42-23.69,27.89-37.24l-27.89-36.74-19.91-26.13ZM2685.98,2211.63v-80.79l75.19-26.11c-11.96-42.09-36.37-72.08-75.19-75.45v-98.68c5.47,0,10.44-.48,15.43-.48,103.06,0,185.67,72.06,213.56,167.83,2.5,9.19,4.99,17.39,6.5,25.63l-6.5,1.94-228.99,86.1ZM2685.98,2264.31h0c-14.95-9.67-26.4-23.19-35.85-39.16l35.85-13.53v-80.79l-64.73,22.74c-27.87-51.26,3.51-123.34,59.74-124.29h4.99v-98.68c-85.63,6.3-152.34,57.56-186.19,126.73-16.94,32.88-25.41,70.61-26.4,108.32,0,37.73,9.47,73.03,26.4,104.48,34.84,66.25,104.05,113.65,186.19,117.52v-123.34" inkscape:connector-curvature="0"/>
            </g>
            <g id="g506">
              <path id="path508" class="st1" d="M2895.06,2193.72c-27.39,40.15-69.19,73.5-135.9,87.05-31.37,1.45-54.77-4.36-73.19-16.46v123.34h11.45c78.16,1.47,164.28-35.3,217.54-93.83,10.97-10.64,20.42-23.69,27.89-37.24l-27.89-36.74-19.91-26.13ZM2685.98,2211.63v-80.79l75.19-26.11c-11.96-42.09-36.37-72.08-75.19-75.45v-98.68c5.47,0,10.44-.48,15.43-.48,103.06,0,185.67,72.06,213.56,167.83,2.5,9.19,4.99,17.39,6.5,25.63l-6.5,1.94-228.99,86.1ZM2685.98,2264.31h0c-14.95-9.67-26.4-23.19-35.85-39.16l35.85-13.53v-80.79l-64.73,22.74c-27.87-51.26,3.51-123.34,59.74-124.29h4.99v-98.68c-85.63,6.3-152.34,57.56-186.19,126.73-16.94,32.88-25.41,70.61-26.4,108.32,0,37.73,9.47,73.03,26.4,104.48,34.84,66.25,104.05,113.65,186.19,117.52v-123.34" inkscape:connector-curvature="0"/>
            </g>
          </g>
        </g>
      </g>
    </g>
    <g id="g534">
      <g>
        <rect class="st1" x="4743.04" y="3338.39" width="3211.5" height="758.44"/>
        <g class="st8">
          <g id="g536">
            <g id="g542">
              <path id="path544" class="st0" d="M6460.48,3719.15l1.01,8.4,5.1-11.38c-2.05,1.01-4.07,1.98-6.12,2.98" inkscape:connector-curvature="0"/>
            </g>
            <g id="g546">
              <path id="path548" class="st1" d="M6460.48,3719.15l1.01,8.4,5.1-11.38c-2.05,1.01-4.07,1.98-6.12,2.98" inkscape:connector-curvature="0"/>
            </g>
            <g id="g550">
              <path id="path552" class="st0" d="M6466.6,3716.19l18.32-37.56,24.44-51.94c-7.63-5.43-15.79-8.89-24.44-12.84-53.94-23.25-107.38-9.9-159.29,39.04l-7.13-40.03c-58.01,38.55-116.02,73.18-179.14,103.81-1.54.99-4.07,1.98-5.61,2.49l4.07,40.05h1.54c23.93-6.92,39.69-1.5,40.19,29.16v237.35c0,13.83,0,26.69-2.02,39.04,66.15-40.03,141.48-77.13,218.84-106.3v-73.16c-15.79,33.11-71.76,38.07-71.76-9.9v-71.7c-.51-49.93,23.91-71.19,31.04-78.12,18.32-15.81,43.25-8.91,45.3,15.81,1.52,18.81-3.06,38.59-13.24,60.34l31.55,12.84,42.26-87.01-1.03-8.4c2.05-.99,4.07-1.98,6.12-2.98" inkscape:connector-curvature="0"/>
            </g>
            <g id="g554">
              <path id="path556" class="st1" d="M6466.6,3716.19l18.32-37.56,24.44-51.94c-7.63-5.43-15.79-8.89-24.44-12.84-53.94-23.25-107.38-9.9-159.29,39.04l-7.13-40.03c-58.01,38.55-116.02,73.18-179.14,103.81-1.54.99-4.07,1.98-5.61,2.49l4.07,40.05h1.54c23.93-6.92,39.69-1.5,40.19,29.16v237.35c0,13.83,0,26.69-2.02,39.04,66.15-40.03,141.48-77.13,218.84-106.3v-73.16c-15.79,33.11-71.76,38.07-71.76-9.9v-71.7c-.51-49.93,23.91-71.19,31.04-78.12,18.32-15.81,43.25-8.91,45.3,15.81,1.52,18.81-3.06,38.59-13.24,60.34l31.55,12.84,42.26-87.01-1.03-8.4c2.05-.99,4.07-1.98,6.12-2.98" inkscape:connector-curvature="0"/>
            </g>
            <g id="g558">
              <path id="path560" class="st0" d="M6074.21,3881.83v-183.45c0-28.17,22.39-35.6,42.74-28.17,5.61-10.39,13.75-20.27,22.39-30.17,2.55-1.48,4.09-3.95,6.12-6.42-2.02-.51-3.56-1.98-6.12-2.98-61.58-32.13-120.62-29.18-166.91,12.35-38.69-22.74-78.38-35.09-116.55-38.55v106.79c3.04-.49,5.59-.49,7.61-.49,33.59-2.47,60.56,14.82,63.62,56.35v129.06c-4.05,39.55-28.51,60.3-66.68,54.87-1.52,0-3.04,0-4.56-.99v101.36l70.22-41.53-.51,53.4c66.15-40.05,135.36-75.65,212.22-104.83v-66.74c-12.72,33.13-63.62,32.13-63.62-9.88M5855.89,3604.45h0c-105.35-8.4-196.47,56.86-219.37,164.15-3.54,15.81-5.08,33.63-5.59,51.43,0,26.69,1.52,52.4,5.59,75.14,14.76,89.5,60.58,148.83,148.12,170.57,18.81,5.45,37.64,2.98,55.97-5.43l15.29-8.42v-101.85c-51.41-9.4-69.74-63.28-70.75-120.13-1.54-67.73,21.36-111.26,70.75-118.17v-107.3" inkscape:connector-curvature="0"/>
            </g>
          </g>
        </g>
      </g>
    </g>
    <g id="g562">
      <g>
        <rect class="st1" x="4760.15" y="3356.75" width="3180.3" height="724.55"/>
        <g class="st7">
          <g id="g564">
            <g id="g570">
              <path id="path572" class="st1" d="M6074.21,3881.83v-183.45c0-28.17,22.39-35.6,42.74-28.17,5.61-10.39,13.75-20.27,22.39-30.17,2.55-1.48,4.09-3.95,6.12-6.42-2.02-.51-3.56-1.98-6.12-2.98-61.58-32.13-120.62-29.18-166.91,12.35-38.69-22.74-78.38-35.09-116.55-38.55v106.79c3.04-.49,5.59-.49,7.61-.49,33.59-2.47,60.56,14.82,63.62,56.35v129.06c-4.05,39.55-28.51,60.3-66.68,54.87-1.52,0-3.04,0-4.56-.99v101.36l70.22-41.53-.51,53.4c66.15-40.05,135.36-75.65,212.22-104.83v-66.74c-12.72,33.13-63.62,32.13-63.62-9.88M5855.89,3604.45h0c-105.35-8.4-196.47,56.86-219.37,164.15-3.54,15.81-5.08,33.63-5.59,51.43,0,26.69,1.52,52.4,5.59,75.14,14.76,89.5,60.58,148.83,148.12,170.57,18.81,5.45,37.64,2.98,55.97-5.43l15.29-8.42v-101.85c-51.41-9.4-69.74-63.28-70.75-120.13-1.54-67.73,21.36-111.26,70.75-118.17v-107.3" inkscape:connector-curvature="0"/>
            </g>
            <g id="g574">
              <path id="path576" class="st0" d="M5345.43,3751.8l-351.67-197.79c-12.74-57.34,65.14-118.66,157.78-88.99,69.72,23.25,81.42,74.17,62.59,154.76l65.14,37.07c17.31-59.33,40.21-116.19,66.17-171.56,8.65-16.81,16.79-33.13,25.45-49.93-7.65-4.94-16.81-9.4-25.45-13.34-128.76-66.25-271.77-87.03-393.41-32.13-120.62,59.33-167.43,157.71-146.58,284.79l335.9,191.35c17.31,8.91,17.31,20.77,13.22,31.63-22.9,63.3-139.45,116.21-204.08,24.72-23.41-32.13-22.39-81.58-16.79-128.56l-61.07-33.61c-25.45,72.67-65.65,147.35-112.48,226.94,119.61,73.18,267.2,117.18,396.97,81.58,91.6-25.72,159.29-85.55,188.31-159.7,19.34-46.49,22.9-98.39,10.69-152.29l-10.69-4.94" inkscape:connector-curvature="0"/>
            </g>
            <g id="g578">
              <path id="path580" class="st1" d="M5345.43,3751.8l-351.67-197.79c-12.74-57.34,65.14-118.66,157.78-88.99,69.72,23.25,81.42,74.17,62.59,154.76l65.14,37.07c17.31-59.33,40.21-116.19,66.17-171.56,8.65-16.81,16.79-33.13,25.45-49.93-7.65-4.94-16.81-9.4-25.45-13.34-128.76-66.25-271.77-87.03-393.41-32.13-120.62,59.33-167.43,157.71-146.58,284.79l335.9,191.35c17.31,8.91,17.31,20.77,13.22,31.63-22.9,63.3-139.45,116.21-204.08,24.72-23.41-32.13-22.39-81.58-16.79-128.56l-61.07-33.61c-25.45,72.67-65.65,147.35-112.48,226.94,119.61,73.18,267.2,117.18,396.97,81.58,91.6-25.72,159.29-85.55,188.31-159.7,19.34-46.49,22.9-98.39,10.69-152.29l-10.69-4.94" inkscape:connector-curvature="0"/>
            </g>
          </g>
        </g>
      </g>
    </g>
    <g id="g582">
      <g>
        <rect class="st1" x="4743.04" y="3338.39" width="3211.5" height="758.44"/>
        <g class="st6">
          <g id="g584">
            <g id="g590">
              <path id="path592" class="st0" d="M5550.52,3875.4v-177.5l62.61-.99,23.41-53.9,5.08-12.86c-1.52,1.48-3.56,1.98-5.08,2.98-23.93,11.36-37.66,14.34-62.61,11.36-12.21-1.48-23.41-17.8-23.41-40.54v-101.85c-59.02,47.95-127.22,105.31-205.1,150.3-7.63,4.45-16.28,8.91-24.44,12.86l14.25,25.72c1.52,2.96,5.1,5.93,10.18,6.92h61.07l-.51,327.82c0,13.83,0,26.69-2.05,39.04,66.68-40.03,141.5-77.13,218.84-106.3v-73.18c-15.77,33.13-72.27,38.09-72.27-9.88" inkscape:connector-curvature="0"/>
            </g>
            <g id="g594">
              <path id="path596" class="st1" d="M5550.52,3875.4v-177.5l62.61-.99,23.41-53.9,5.08-12.86c-1.52,1.48-3.56,1.98-5.08,2.98-23.93,11.36-37.66,14.34-62.61,11.36-12.21-1.48-23.41-17.8-23.41-40.54v-101.85c-59.02,47.95-127.22,105.31-205.1,150.3-7.63,4.45-16.28,8.91-24.44,12.86l14.25,25.72c1.52,2.96,5.1,5.93,10.18,6.92h61.07l-.51,327.82c0,13.83,0,26.69-2.05,39.04,66.68-40.03,141.5-77.13,218.84-106.3v-73.18c-15.77,33.13-72.27,38.09-72.27-9.88" inkscape:connector-curvature="0"/>
            </g>
            <g id="g598">
              <path id="path600" class="st0" d="M7842.24,3357.73c-1.01,0-2.05-.99-2.53-.99h-.53v13.34h3.06c46.33,1.48,84.48,39.06,84.48,85.04s-38.15,83.08-84.48,84.56h-3.06v13.34h3.06c53.44-1.48,98.23-44.49,98.23-97.9s-44.79-96.91-98.23-97.39M7839.18,3356.74c-29,0-54.97,12.35-73.3,31.65-16.77,16.81-27.46,40.54-27.46,66.74s10.69,49.45,27.46,66.25c18.32,19.3,44.3,31.65,73.3,31.65v-13.34c-30.53,0-57.51-15.33-73.3-38.09-8.63-13.83-14.23-29.66-14.23-46.47,0-17.8,5.61-33.13,14.23-46.98,15.79-22.74,42.76-38.07,73.3-38.07v-13.34" inkscape:connector-curvature="0"/>
            </g>
            <g id="g602">
              <path id="path604" class="st1" d="M7842.24,3357.73c-1.01,0-2.05-.99-2.53-.99h-.53v13.34h3.06c46.33,1.48,84.48,39.06,84.48,85.04s-38.15,83.08-84.48,84.56h-3.06v13.34h3.06c53.44-1.48,98.23-44.49,98.23-97.9s-44.79-96.91-98.23-97.39M7839.18,3356.74c-29,0-54.97,12.35-73.3,31.65-16.77,16.81-27.46,40.54-27.46,66.74s10.69,49.45,27.46,66.25c18.32,19.3,44.3,31.65,73.3,31.65v-13.34c-30.53,0-57.51-15.33-73.3-38.09-8.63-13.83-14.23-29.66-14.23-46.47,0-17.8,5.61-33.13,14.23-46.98,15.79-22.74,42.76-38.07,73.3-38.07v-13.34" inkscape:connector-curvature="0"/>
            </g>
            <g id="g606">
              <path id="path608" class="st0" d="M7881.42,3493.2l-.49-18.79c0-14.34-6.64-16.81-12.23-19.28,6.62-3.46,14.76-8.91,14.76-23.73,0-21.77-17.8-27.7-34.1-27.7h-7.13v12.37h7.63c7.13,0,18.83.49,18.83,15.81s-10.67,17.8-20.88,17.8h-5.59v11.87h7.13c16.3,0,17.82,9.9,17.82,18.3,0,3.95,1.01,19.28,2.55,25.21h17.29v-1.98c-4.6-2.47-4.6-4.94-5.61-9.88M7842.24,3403.7h-41.21v101.36h14.23v-43.51h26.97v-11.87h-26.97v-33.61h26.97v-12.37" inkscape:connector-curvature="0"/>
            </g>
            <g id="g610">
              <path id="path612" class="st1" d="M7881.42,3493.2l-.49-18.79c0-14.34-6.64-16.81-12.23-19.28,6.62-3.46,14.76-8.91,14.76-23.73,0-21.77-17.8-27.7-34.1-27.7h-7.13v12.37h7.63c7.13,0,18.83.49,18.83,15.81s-10.67,17.8-20.88,17.8h-5.59v11.87h7.13c16.3,0,17.82,9.9,17.82,18.3,0,3.95,1.01,19.28,2.55,25.21h17.29v-1.98c-4.6-2.47-4.6-4.94-5.61-9.88M7842.24,3403.7h-41.21v101.36h14.23v-43.51h26.97v-11.87h-26.97v-33.61h26.97v-12.37" inkscape:connector-curvature="0"/>
            </g>
            <g id="g614">
              <path id="path616" class="st0" d="M6746.5,3814.58l65.67-133.98,25.94-53.9c-8.63-5.43-17.27-9.88-25.94-13.83-53.94-22.25-107.9-8.91-159.82,40.03l-7.11-40.03c-52.42,34.6-103.81,66.25-160.33,94.92-5.59,2.98-12.21,5.45-18.32,8.4l-5.08,11.38,3.06,31.65c7.63-2.49,14.76-2.98,20.35-2.98,13.75,1.48,21.38,10.87,21.38,32.13v237.35c0,13.83,0,26.69-2.55,39.04,67.69-40.03,142-77.13,219.88-106.3v-73.16c-15.79,33.11-72.29,38.07-72.29-9.9v-71.7c-.51-49.93,23.93-71.19,31.57-78.12,18.32-15.81,42.74-8.91,45.3,15.81,1.52,18.81-3.06,38.57-12.74,60.34l31.04,12.84" inkscape:connector-curvature="0"/>
            </g>
            <g id="g618">
              <path id="path620" class="st1" d="M6746.5,3814.58l65.67-133.98,25.94-53.9c-8.63-5.43-17.27-9.88-25.94-13.83-53.94-22.25-107.9-8.91-159.82,40.03l-7.11-40.03c-52.42,34.6-103.81,66.25-160.33,94.92-5.59,2.98-12.21,5.45-18.32,8.4l-5.08,11.38,3.06,31.65c7.63-2.49,14.76-2.98,20.35-2.98,13.75,1.48,21.38,10.87,21.38,32.13v237.35c0,13.83,0,26.69-2.55,39.04,67.69-40.03,142-77.13,219.88-106.3v-73.16c-15.79,33.11-72.29,38.07-72.29-9.9v-71.7c-.51-49.93,23.93-71.19,31.57-78.12,18.32-15.81,42.74-8.91,45.3,15.81,1.52,18.81-3.06,38.57-12.74,60.34l31.04,12.84" inkscape:connector-curvature="0"/>
            </g>
            <g id="g622">
              <path id="path624" class="st0" d="M7765.39,3696.91l.49-2.47,26.99-64.29c-10.16,4.96-18.83,8.91-26.99,11.87-12.7,3.97-24.4,4.96-40.19,2.49-12.21-1.5-22.9-17.82-23.91-40.56l1.01-101.85c-50.88,40.05-110.94,88.51-173.53,128.56-26.97,12.86-41.23,17.8-67.69,13.85-11.7-1.5-22.9-17.82-23.41-40.56v-101.85c-58.52,46.98-125.22,103.83-201.55,147.83-9.15,5.45-18.83,10.87-28.51,15.33l14.25,25.72c1.54,2.96,5.1,6.92,12.23,6.92h59.02v327.82c0,13.83-.51,26.69-2.02,39.04,66.15-40.03,141.48-77.13,218.32-106.3v-73.16c-14.74,33.13-71.74,38.07-71.23-9.9v-177.5h119.08v327.82c0,13.83-1.01,26.69-2.55,39.04,64.13-38.55,136.39-73.66,210.68-103.83,2.57-.99,5.63-1.48,8.16-2.47v-73.16c-1.52,3.95-5.08,8.4-8.16,11.87-21.34,22.23-63.09,19.76-63.09-21.77v-177.5l62.61-.99" inkscape:connector-curvature="0"/>
            </g>
            <g id="g626">
              <path id="path628" class="st1" d="M7765.39,3696.91l.49-2.47,26.99-64.29c-10.16,4.96-18.83,8.91-26.99,11.87-12.7,3.97-24.4,4.96-40.19,2.49-12.21-1.5-22.9-17.82-23.91-40.56l1.01-101.85c-50.88,40.05-110.94,88.51-173.53,128.56-26.97,12.86-41.23,17.8-67.69,13.85-11.7-1.5-22.9-17.82-23.41-40.56v-101.85c-58.52,46.98-125.22,103.83-201.55,147.83-9.15,5.45-18.83,10.87-28.51,15.33l14.25,25.72c1.54,2.96,5.1,6.92,12.23,6.92h59.02v327.82c0,13.83-.51,26.69-2.02,39.04,66.15-40.03,141.48-77.13,218.32-106.3v-73.16c-14.74,33.13-71.74,38.07-71.23-9.9v-177.5h119.08v327.82c0,13.83-1.01,26.69-2.55,39.04,64.13-38.55,136.39-73.66,210.68-103.83,2.57-.99,5.63-1.48,8.16-2.47v-73.16c-1.52,3.95-5.08,8.4-8.16,11.87-21.34,22.23-63.09,19.76-63.09-21.77v-177.5l62.61-.99" inkscape:connector-curvature="0"/>
            </g>
            <g id="g630">
              <path id="path632" class="st0" d="M7216.25,3867.99c-28,41.04-70.73,75.14-138.92,88.99-32.07,1.48-55.99-4.45-74.82-16.83v126.09h11.7c79.9,1.5,167.94-36.08,222.39-95.92,11.22-10.87,20.88-24.22,28.51-38.07l-28.51-37.56-20.35-26.71ZM7002.51,3886.29v-82.59l76.86-26.69c-12.23-43.03-37.18-73.68-76.86-77.15v-100.86c5.59,0,10.67-.49,15.77-.49,105.35,0,189.81,73.66,218.32,171.56,2.55,9.4,5.1,17.78,6.64,26.2l-6.64,1.98-234.09,88.02ZM7002.51,3940.15h0c-15.29-9.88-26.99-23.71-36.65-40.03l36.65-13.83v-82.59l-66.17,23.25c-28.49-52.4,3.58-126.09,61.07-127.08h5.1v-100.86c-87.53,6.44-155.73,58.84-190.34,129.55-17.31,33.61-25.98,72.19-26.99,110.74,0,38.57,9.68,74.66,26.99,106.81,35.62,67.73,106.36,116.19,190.34,120.13v-126.09" inkscape:connector-curvature="0"/>
            </g>
            <g id="g634">
              <path id="path636" class="st1" d="M7216.25,3867.99c-28,41.04-70.73,75.14-138.92,88.99-32.07,1.48-55.99-4.45-74.82-16.83v126.09h11.7c79.9,1.5,167.94-36.08,222.39-95.92,11.22-10.87,20.88-24.22,28.51-38.07l-28.51-37.56-20.35-26.71ZM7002.51,3886.29v-82.59l76.86-26.69c-12.23-43.03-37.18-73.68-76.86-77.15v-100.86c5.59,0,10.67-.49,15.77-.49,105.35,0,189.81,73.66,218.32,171.56,2.55,9.4,5.1,17.78,6.64,26.2l-6.64,1.98-234.09,88.02ZM7002.51,3940.15h0c-15.29-9.88-26.99-23.71-36.65-40.03l36.65-13.83v-82.59l-66.17,23.25c-28.49-52.4,3.58-126.09,61.07-127.08h5.1v-100.86c-87.53,6.44-155.73,58.84-190.34,129.55-17.31,33.61-25.98,72.19-26.99,110.74,0,38.57,9.68,74.66,26.99,106.81,35.62,67.73,106.36,116.19,190.34,120.13v-126.09" inkscape:connector-curvature="0"/>
            </g>
          </g>
        </g>
      </g>
    </g>
  </g>
</svg>